G04 #@! TF.GenerationSoftware,KiCad,Pcbnew,5.0.1*
G04 #@! TF.CreationDate,2019-02-03T14:29:02+01:00*
G04 #@! TF.ProjectId,ardlantic,6172646C616E7469632E6B696361645F,rev?*
G04 #@! TF.SameCoordinates,Original*
G04 #@! TF.FileFunction,Soldermask,Top*
G04 #@! TF.FilePolarity,Negative*
%FSLAX46Y46*%
G04 Gerber Fmt 4.6, Leading zero omitted, Abs format (unit mm)*
G04 Created by KiCad (PCBNEW 5.0.1) date Sun 03 Feb 2019 02:29:02 PM CET*
%MOMM*%
%LPD*%
G01*
G04 APERTURE LIST*
%ADD10C,0.100000*%
G04 APERTURE END LIST*
D10*
G36*
X122030443Y-89275519D02*
X122096627Y-89282037D01*
X122209853Y-89316384D01*
X122266467Y-89333557D01*
X122396363Y-89402989D01*
X122422991Y-89417222D01*
X122458729Y-89446552D01*
X122560186Y-89529814D01*
X122643448Y-89631271D01*
X122672778Y-89667009D01*
X122672779Y-89667011D01*
X122756443Y-89823533D01*
X122756443Y-89823534D01*
X122807963Y-89993373D01*
X122825359Y-90170000D01*
X122807963Y-90346627D01*
X122773616Y-90459853D01*
X122756443Y-90516467D01*
X122682348Y-90655087D01*
X122672778Y-90672991D01*
X122643448Y-90708729D01*
X122560186Y-90810186D01*
X122458729Y-90893448D01*
X122422991Y-90922778D01*
X122422989Y-90922779D01*
X122266467Y-91006443D01*
X122209853Y-91023616D01*
X122096627Y-91057963D01*
X122030442Y-91064482D01*
X121964260Y-91071000D01*
X121875740Y-91071000D01*
X121809558Y-91064482D01*
X121743373Y-91057963D01*
X121630147Y-91023616D01*
X121573533Y-91006443D01*
X121417011Y-90922779D01*
X121417009Y-90922778D01*
X121381271Y-90893448D01*
X121279814Y-90810186D01*
X121196552Y-90708729D01*
X121167222Y-90672991D01*
X121157652Y-90655087D01*
X121083557Y-90516467D01*
X121066384Y-90459853D01*
X121032037Y-90346627D01*
X121014641Y-90170000D01*
X121032037Y-89993373D01*
X121083557Y-89823534D01*
X121083557Y-89823533D01*
X121167221Y-89667011D01*
X121167222Y-89667009D01*
X121196552Y-89631271D01*
X121279814Y-89529814D01*
X121381271Y-89446552D01*
X121417009Y-89417222D01*
X121443637Y-89402989D01*
X121573533Y-89333557D01*
X121630147Y-89316384D01*
X121743373Y-89282037D01*
X121809557Y-89275519D01*
X121875740Y-89269000D01*
X121964260Y-89269000D01*
X122030443Y-89275519D01*
X122030443Y-89275519D01*
G37*
G36*
X120281000Y-91071000D02*
X118479000Y-91071000D01*
X118479000Y-89269000D01*
X120281000Y-89269000D01*
X120281000Y-91071000D01*
X120281000Y-91071000D01*
G37*
G36*
X106790443Y-88005519D02*
X106856627Y-88012037D01*
X106969853Y-88046384D01*
X107026467Y-88063557D01*
X107165087Y-88137652D01*
X107182991Y-88147222D01*
X107218729Y-88176552D01*
X107320186Y-88259814D01*
X107403448Y-88361271D01*
X107432778Y-88397009D01*
X107432779Y-88397011D01*
X107516443Y-88553533D01*
X107516443Y-88553534D01*
X107567963Y-88723373D01*
X107585359Y-88900000D01*
X107567963Y-89076627D01*
X107533616Y-89189853D01*
X107516443Y-89246467D01*
X107497430Y-89282037D01*
X107432778Y-89402991D01*
X107403448Y-89438729D01*
X107320186Y-89540186D01*
X107218729Y-89623448D01*
X107182991Y-89652778D01*
X107182989Y-89652779D01*
X107026467Y-89736443D01*
X106969853Y-89753616D01*
X106856627Y-89787963D01*
X106790443Y-89794481D01*
X106724260Y-89801000D01*
X106635740Y-89801000D01*
X106569557Y-89794481D01*
X106503373Y-89787963D01*
X106390147Y-89753616D01*
X106333533Y-89736443D01*
X106177011Y-89652779D01*
X106177009Y-89652778D01*
X106141271Y-89623448D01*
X106039814Y-89540186D01*
X105956552Y-89438729D01*
X105927222Y-89402991D01*
X105862570Y-89282037D01*
X105843557Y-89246467D01*
X105826384Y-89189853D01*
X105792037Y-89076627D01*
X105774641Y-88900000D01*
X105792037Y-88723373D01*
X105843557Y-88553534D01*
X105843557Y-88553533D01*
X105927221Y-88397011D01*
X105927222Y-88397009D01*
X105956552Y-88361271D01*
X106039814Y-88259814D01*
X106141271Y-88176552D01*
X106177009Y-88147222D01*
X106194913Y-88137652D01*
X106333533Y-88063557D01*
X106390147Y-88046384D01*
X106503373Y-88012037D01*
X106569557Y-88005519D01*
X106635740Y-87999000D01*
X106724260Y-87999000D01*
X106790443Y-88005519D01*
X106790443Y-88005519D01*
G37*
G36*
X104250443Y-88005519D02*
X104316627Y-88012037D01*
X104429853Y-88046384D01*
X104486467Y-88063557D01*
X104625087Y-88137652D01*
X104642991Y-88147222D01*
X104678729Y-88176552D01*
X104780186Y-88259814D01*
X104863448Y-88361271D01*
X104892778Y-88397009D01*
X104892779Y-88397011D01*
X104976443Y-88553533D01*
X104976443Y-88553534D01*
X105027963Y-88723373D01*
X105045359Y-88900000D01*
X105027963Y-89076627D01*
X104993616Y-89189853D01*
X104976443Y-89246467D01*
X104957430Y-89282037D01*
X104892778Y-89402991D01*
X104863448Y-89438729D01*
X104780186Y-89540186D01*
X104678729Y-89623448D01*
X104642991Y-89652778D01*
X104642989Y-89652779D01*
X104486467Y-89736443D01*
X104429853Y-89753616D01*
X104316627Y-89787963D01*
X104250443Y-89794481D01*
X104184260Y-89801000D01*
X104095740Y-89801000D01*
X104029557Y-89794481D01*
X103963373Y-89787963D01*
X103850147Y-89753616D01*
X103793533Y-89736443D01*
X103637011Y-89652779D01*
X103637009Y-89652778D01*
X103601271Y-89623448D01*
X103499814Y-89540186D01*
X103416552Y-89438729D01*
X103387222Y-89402991D01*
X103322570Y-89282037D01*
X103303557Y-89246467D01*
X103286384Y-89189853D01*
X103252037Y-89076627D01*
X103234641Y-88900000D01*
X103252037Y-88723373D01*
X103303557Y-88553534D01*
X103303557Y-88553533D01*
X103387221Y-88397011D01*
X103387222Y-88397009D01*
X103416552Y-88361271D01*
X103499814Y-88259814D01*
X103601271Y-88176552D01*
X103637009Y-88147222D01*
X103654913Y-88137652D01*
X103793533Y-88063557D01*
X103850147Y-88046384D01*
X103963373Y-88012037D01*
X104029557Y-88005519D01*
X104095740Y-87999000D01*
X104184260Y-87999000D01*
X104250443Y-88005519D01*
X104250443Y-88005519D01*
G37*
G36*
X102501000Y-89801000D02*
X100699000Y-89801000D01*
X100699000Y-87999000D01*
X102501000Y-87999000D01*
X102501000Y-89801000D01*
X102501000Y-89801000D01*
G37*
G36*
X132190443Y-88005519D02*
X132256627Y-88012037D01*
X132369853Y-88046384D01*
X132426467Y-88063557D01*
X132565087Y-88137652D01*
X132582991Y-88147222D01*
X132618729Y-88176552D01*
X132720186Y-88259814D01*
X132803448Y-88361271D01*
X132832778Y-88397009D01*
X132832779Y-88397011D01*
X132916443Y-88553533D01*
X132916443Y-88553534D01*
X132967963Y-88723373D01*
X132985359Y-88900000D01*
X132967963Y-89076627D01*
X132933616Y-89189853D01*
X132916443Y-89246467D01*
X132897430Y-89282037D01*
X132832778Y-89402991D01*
X132803448Y-89438729D01*
X132720186Y-89540186D01*
X132618729Y-89623448D01*
X132582991Y-89652778D01*
X132582989Y-89652779D01*
X132426467Y-89736443D01*
X132369853Y-89753616D01*
X132256627Y-89787963D01*
X132190443Y-89794481D01*
X132124260Y-89801000D01*
X132035740Y-89801000D01*
X131969557Y-89794481D01*
X131903373Y-89787963D01*
X131790147Y-89753616D01*
X131733533Y-89736443D01*
X131577011Y-89652779D01*
X131577009Y-89652778D01*
X131541271Y-89623448D01*
X131439814Y-89540186D01*
X131356552Y-89438729D01*
X131327222Y-89402991D01*
X131262570Y-89282037D01*
X131243557Y-89246467D01*
X131226384Y-89189853D01*
X131192037Y-89076627D01*
X131174641Y-88900000D01*
X131192037Y-88723373D01*
X131243557Y-88553534D01*
X131243557Y-88553533D01*
X131327221Y-88397011D01*
X131327222Y-88397009D01*
X131356552Y-88361271D01*
X131439814Y-88259814D01*
X131541271Y-88176552D01*
X131577009Y-88147222D01*
X131594913Y-88137652D01*
X131733533Y-88063557D01*
X131790147Y-88046384D01*
X131903373Y-88012037D01*
X131969557Y-88005519D01*
X132035740Y-87999000D01*
X132124260Y-87999000D01*
X132190443Y-88005519D01*
X132190443Y-88005519D01*
G37*
G36*
X139175442Y-85465518D02*
X139241627Y-85472037D01*
X139354853Y-85506384D01*
X139411467Y-85523557D01*
X139550087Y-85597652D01*
X139567991Y-85607222D01*
X139603729Y-85636552D01*
X139705186Y-85719814D01*
X139788448Y-85821271D01*
X139817778Y-85857009D01*
X139817779Y-85857011D01*
X139901443Y-86013533D01*
X139901443Y-86013534D01*
X139952963Y-86183373D01*
X139970359Y-86360000D01*
X139952963Y-86536627D01*
X139918616Y-86649853D01*
X139901443Y-86706467D01*
X139827348Y-86845087D01*
X139817778Y-86862991D01*
X139788448Y-86898729D01*
X139705186Y-87000186D01*
X139603729Y-87083448D01*
X139567991Y-87112778D01*
X139567989Y-87112779D01*
X139411467Y-87196443D01*
X139354853Y-87213616D01*
X139241627Y-87247963D01*
X139175442Y-87254482D01*
X139109260Y-87261000D01*
X139020740Y-87261000D01*
X138954558Y-87254482D01*
X138888373Y-87247963D01*
X138775147Y-87213616D01*
X138718533Y-87196443D01*
X138562011Y-87112779D01*
X138562009Y-87112778D01*
X138526271Y-87083448D01*
X138424814Y-87000186D01*
X138341552Y-86898729D01*
X138312222Y-86862991D01*
X138302652Y-86845087D01*
X138228557Y-86706467D01*
X138211384Y-86649853D01*
X138177037Y-86536627D01*
X138159641Y-86360000D01*
X138177037Y-86183373D01*
X138228557Y-86013534D01*
X138228557Y-86013533D01*
X138312221Y-85857011D01*
X138312222Y-85857009D01*
X138341552Y-85821271D01*
X138424814Y-85719814D01*
X138526271Y-85636552D01*
X138562009Y-85607222D01*
X138579913Y-85597652D01*
X138718533Y-85523557D01*
X138775147Y-85506384D01*
X138888373Y-85472037D01*
X138954558Y-85465518D01*
X139020740Y-85459000D01*
X139109260Y-85459000D01*
X139175442Y-85465518D01*
X139175442Y-85465518D01*
G37*
G36*
X136635442Y-85465518D02*
X136701627Y-85472037D01*
X136814853Y-85506384D01*
X136871467Y-85523557D01*
X137010087Y-85597652D01*
X137027991Y-85607222D01*
X137063729Y-85636552D01*
X137165186Y-85719814D01*
X137248448Y-85821271D01*
X137277778Y-85857009D01*
X137277779Y-85857011D01*
X137361443Y-86013533D01*
X137361443Y-86013534D01*
X137412963Y-86183373D01*
X137430359Y-86360000D01*
X137412963Y-86536627D01*
X137378616Y-86649853D01*
X137361443Y-86706467D01*
X137287348Y-86845087D01*
X137277778Y-86862991D01*
X137248448Y-86898729D01*
X137165186Y-87000186D01*
X137063729Y-87083448D01*
X137027991Y-87112778D01*
X137027989Y-87112779D01*
X136871467Y-87196443D01*
X136814853Y-87213616D01*
X136701627Y-87247963D01*
X136635442Y-87254482D01*
X136569260Y-87261000D01*
X136480740Y-87261000D01*
X136414558Y-87254482D01*
X136348373Y-87247963D01*
X136235147Y-87213616D01*
X136178533Y-87196443D01*
X136022011Y-87112779D01*
X136022009Y-87112778D01*
X135986271Y-87083448D01*
X135884814Y-87000186D01*
X135801552Y-86898729D01*
X135772222Y-86862991D01*
X135762652Y-86845087D01*
X135688557Y-86706467D01*
X135671384Y-86649853D01*
X135637037Y-86536627D01*
X135619641Y-86360000D01*
X135637037Y-86183373D01*
X135688557Y-86013534D01*
X135688557Y-86013533D01*
X135772221Y-85857011D01*
X135772222Y-85857009D01*
X135801552Y-85821271D01*
X135884814Y-85719814D01*
X135986271Y-85636552D01*
X136022009Y-85607222D01*
X136039913Y-85597652D01*
X136178533Y-85523557D01*
X136235147Y-85506384D01*
X136348373Y-85472037D01*
X136414558Y-85465518D01*
X136480740Y-85459000D01*
X136569260Y-85459000D01*
X136635442Y-85465518D01*
X136635442Y-85465518D01*
G37*
G36*
X132190442Y-85465518D02*
X132256627Y-85472037D01*
X132369853Y-85506384D01*
X132426467Y-85523557D01*
X132565087Y-85597652D01*
X132582991Y-85607222D01*
X132618729Y-85636552D01*
X132720186Y-85719814D01*
X132803448Y-85821271D01*
X132832778Y-85857009D01*
X132832779Y-85857011D01*
X132916443Y-86013533D01*
X132916443Y-86013534D01*
X132967963Y-86183373D01*
X132985359Y-86360000D01*
X132967963Y-86536627D01*
X132933616Y-86649853D01*
X132916443Y-86706467D01*
X132842348Y-86845087D01*
X132832778Y-86862991D01*
X132803448Y-86898729D01*
X132720186Y-87000186D01*
X132618729Y-87083448D01*
X132582991Y-87112778D01*
X132582989Y-87112779D01*
X132426467Y-87196443D01*
X132369853Y-87213616D01*
X132256627Y-87247963D01*
X132190442Y-87254482D01*
X132124260Y-87261000D01*
X132035740Y-87261000D01*
X131969558Y-87254482D01*
X131903373Y-87247963D01*
X131790147Y-87213616D01*
X131733533Y-87196443D01*
X131577011Y-87112779D01*
X131577009Y-87112778D01*
X131541271Y-87083448D01*
X131439814Y-87000186D01*
X131356552Y-86898729D01*
X131327222Y-86862991D01*
X131317652Y-86845087D01*
X131243557Y-86706467D01*
X131226384Y-86649853D01*
X131192037Y-86536627D01*
X131174641Y-86360000D01*
X131192037Y-86183373D01*
X131243557Y-86013534D01*
X131243557Y-86013533D01*
X131327221Y-85857011D01*
X131327222Y-85857009D01*
X131356552Y-85821271D01*
X131439814Y-85719814D01*
X131541271Y-85636552D01*
X131577009Y-85607222D01*
X131594913Y-85597652D01*
X131733533Y-85523557D01*
X131790147Y-85506384D01*
X131903373Y-85472037D01*
X131969558Y-85465518D01*
X132035740Y-85459000D01*
X132124260Y-85459000D01*
X132190442Y-85465518D01*
X132190442Y-85465518D01*
G37*
G36*
X107581000Y-85356000D02*
X105779000Y-85356000D01*
X105779000Y-83554000D01*
X107581000Y-83554000D01*
X107581000Y-85356000D01*
X107581000Y-85356000D01*
G37*
G36*
X104250443Y-83560519D02*
X104316627Y-83567037D01*
X104429853Y-83601384D01*
X104486467Y-83618557D01*
X104625087Y-83692652D01*
X104642991Y-83702222D01*
X104678729Y-83731552D01*
X104780186Y-83814814D01*
X104863448Y-83916271D01*
X104892778Y-83952009D01*
X104892779Y-83952011D01*
X104976443Y-84108533D01*
X104976443Y-84108534D01*
X105027963Y-84278373D01*
X105045359Y-84455000D01*
X105027963Y-84631627D01*
X105020435Y-84656443D01*
X104976443Y-84801467D01*
X104902348Y-84940087D01*
X104892778Y-84957991D01*
X104863448Y-84993729D01*
X104780186Y-85095186D01*
X104678729Y-85178448D01*
X104642991Y-85207778D01*
X104642989Y-85207779D01*
X104486467Y-85291443D01*
X104429853Y-85308616D01*
X104316627Y-85342963D01*
X104250442Y-85349482D01*
X104184260Y-85356000D01*
X104095740Y-85356000D01*
X104029558Y-85349482D01*
X103963373Y-85342963D01*
X103850147Y-85308616D01*
X103793533Y-85291443D01*
X103637011Y-85207779D01*
X103637009Y-85207778D01*
X103601271Y-85178448D01*
X103499814Y-85095186D01*
X103416552Y-84993729D01*
X103387222Y-84957991D01*
X103377652Y-84940087D01*
X103303557Y-84801467D01*
X103259565Y-84656443D01*
X103252037Y-84631627D01*
X103234641Y-84455000D01*
X103252037Y-84278373D01*
X103303557Y-84108534D01*
X103303557Y-84108533D01*
X103387221Y-83952011D01*
X103387222Y-83952009D01*
X103416552Y-83916271D01*
X103499814Y-83814814D01*
X103601271Y-83731552D01*
X103637009Y-83702222D01*
X103654913Y-83692652D01*
X103793533Y-83618557D01*
X103850147Y-83601384D01*
X103963373Y-83567037D01*
X104029557Y-83560519D01*
X104095740Y-83554000D01*
X104184260Y-83554000D01*
X104250443Y-83560519D01*
X104250443Y-83560519D01*
G37*
G36*
X101710443Y-83560519D02*
X101776627Y-83567037D01*
X101889853Y-83601384D01*
X101946467Y-83618557D01*
X102085087Y-83692652D01*
X102102991Y-83702222D01*
X102138729Y-83731552D01*
X102240186Y-83814814D01*
X102323448Y-83916271D01*
X102352778Y-83952009D01*
X102352779Y-83952011D01*
X102436443Y-84108533D01*
X102436443Y-84108534D01*
X102487963Y-84278373D01*
X102505359Y-84455000D01*
X102487963Y-84631627D01*
X102480435Y-84656443D01*
X102436443Y-84801467D01*
X102362348Y-84940087D01*
X102352778Y-84957991D01*
X102323448Y-84993729D01*
X102240186Y-85095186D01*
X102138729Y-85178448D01*
X102102991Y-85207778D01*
X102102989Y-85207779D01*
X101946467Y-85291443D01*
X101889853Y-85308616D01*
X101776627Y-85342963D01*
X101710442Y-85349482D01*
X101644260Y-85356000D01*
X101555740Y-85356000D01*
X101489558Y-85349482D01*
X101423373Y-85342963D01*
X101310147Y-85308616D01*
X101253533Y-85291443D01*
X101097011Y-85207779D01*
X101097009Y-85207778D01*
X101061271Y-85178448D01*
X100959814Y-85095186D01*
X100876552Y-84993729D01*
X100847222Y-84957991D01*
X100837652Y-84940087D01*
X100763557Y-84801467D01*
X100719565Y-84656443D01*
X100712037Y-84631627D01*
X100694641Y-84455000D01*
X100712037Y-84278373D01*
X100763557Y-84108534D01*
X100763557Y-84108533D01*
X100847221Y-83952011D01*
X100847222Y-83952009D01*
X100876552Y-83916271D01*
X100959814Y-83814814D01*
X101061271Y-83731552D01*
X101097009Y-83702222D01*
X101114913Y-83692652D01*
X101253533Y-83618557D01*
X101310147Y-83601384D01*
X101423373Y-83567037D01*
X101489557Y-83560519D01*
X101555740Y-83554000D01*
X101644260Y-83554000D01*
X101710443Y-83560519D01*
X101710443Y-83560519D01*
G37*
G36*
X132190443Y-82925519D02*
X132256627Y-82932037D01*
X132369853Y-82966384D01*
X132426467Y-82983557D01*
X132565087Y-83057652D01*
X132582991Y-83067222D01*
X132618729Y-83096552D01*
X132720186Y-83179814D01*
X132803448Y-83281271D01*
X132832778Y-83317009D01*
X132832779Y-83317011D01*
X132916443Y-83473533D01*
X132916443Y-83473534D01*
X132967963Y-83643373D01*
X132985359Y-83820000D01*
X132967963Y-83996627D01*
X132934017Y-84108533D01*
X132916443Y-84166467D01*
X132856627Y-84278373D01*
X132832778Y-84322991D01*
X132803448Y-84358729D01*
X132720186Y-84460186D01*
X132618729Y-84543448D01*
X132582991Y-84572778D01*
X132582989Y-84572779D01*
X132426467Y-84656443D01*
X132369853Y-84673616D01*
X132256627Y-84707963D01*
X132190443Y-84714481D01*
X132124260Y-84721000D01*
X132035740Y-84721000D01*
X131969557Y-84714481D01*
X131903373Y-84707963D01*
X131790147Y-84673616D01*
X131733533Y-84656443D01*
X131577011Y-84572779D01*
X131577009Y-84572778D01*
X131541271Y-84543448D01*
X131439814Y-84460186D01*
X131356552Y-84358729D01*
X131327222Y-84322991D01*
X131303373Y-84278373D01*
X131243557Y-84166467D01*
X131225983Y-84108533D01*
X131192037Y-83996627D01*
X131174641Y-83820000D01*
X131192037Y-83643373D01*
X131243557Y-83473534D01*
X131243557Y-83473533D01*
X131327221Y-83317011D01*
X131327222Y-83317009D01*
X131356552Y-83281271D01*
X131439814Y-83179814D01*
X131541271Y-83096552D01*
X131577009Y-83067222D01*
X131594913Y-83057652D01*
X131733533Y-82983557D01*
X131790147Y-82966384D01*
X131903373Y-82932037D01*
X131969557Y-82925519D01*
X132035740Y-82919000D01*
X132124260Y-82919000D01*
X132190443Y-82925519D01*
X132190443Y-82925519D01*
G37*
G36*
X136635443Y-82925519D02*
X136701627Y-82932037D01*
X136814853Y-82966384D01*
X136871467Y-82983557D01*
X137010087Y-83057652D01*
X137027991Y-83067222D01*
X137063729Y-83096552D01*
X137165186Y-83179814D01*
X137248448Y-83281271D01*
X137277778Y-83317009D01*
X137277779Y-83317011D01*
X137361443Y-83473533D01*
X137361443Y-83473534D01*
X137412963Y-83643373D01*
X137430359Y-83820000D01*
X137412963Y-83996627D01*
X137379017Y-84108533D01*
X137361443Y-84166467D01*
X137301627Y-84278373D01*
X137277778Y-84322991D01*
X137248448Y-84358729D01*
X137165186Y-84460186D01*
X137063729Y-84543448D01*
X137027991Y-84572778D01*
X137027989Y-84572779D01*
X136871467Y-84656443D01*
X136814853Y-84673616D01*
X136701627Y-84707963D01*
X136635443Y-84714481D01*
X136569260Y-84721000D01*
X136480740Y-84721000D01*
X136414557Y-84714481D01*
X136348373Y-84707963D01*
X136235147Y-84673616D01*
X136178533Y-84656443D01*
X136022011Y-84572779D01*
X136022009Y-84572778D01*
X135986271Y-84543448D01*
X135884814Y-84460186D01*
X135801552Y-84358729D01*
X135772222Y-84322991D01*
X135748373Y-84278373D01*
X135688557Y-84166467D01*
X135670983Y-84108533D01*
X135637037Y-83996627D01*
X135619641Y-83820000D01*
X135637037Y-83643373D01*
X135688557Y-83473534D01*
X135688557Y-83473533D01*
X135772221Y-83317011D01*
X135772222Y-83317009D01*
X135801552Y-83281271D01*
X135884814Y-83179814D01*
X135986271Y-83096552D01*
X136022009Y-83067222D01*
X136039913Y-83057652D01*
X136178533Y-82983557D01*
X136235147Y-82966384D01*
X136348373Y-82932037D01*
X136414557Y-82925519D01*
X136480740Y-82919000D01*
X136569260Y-82919000D01*
X136635443Y-82925519D01*
X136635443Y-82925519D01*
G37*
G36*
X139175443Y-82925519D02*
X139241627Y-82932037D01*
X139354853Y-82966384D01*
X139411467Y-82983557D01*
X139550087Y-83057652D01*
X139567991Y-83067222D01*
X139603729Y-83096552D01*
X139705186Y-83179814D01*
X139788448Y-83281271D01*
X139817778Y-83317009D01*
X139817779Y-83317011D01*
X139901443Y-83473533D01*
X139901443Y-83473534D01*
X139952963Y-83643373D01*
X139970359Y-83820000D01*
X139952963Y-83996627D01*
X139919017Y-84108533D01*
X139901443Y-84166467D01*
X139841627Y-84278373D01*
X139817778Y-84322991D01*
X139788448Y-84358729D01*
X139705186Y-84460186D01*
X139603729Y-84543448D01*
X139567991Y-84572778D01*
X139567989Y-84572779D01*
X139411467Y-84656443D01*
X139354853Y-84673616D01*
X139241627Y-84707963D01*
X139175443Y-84714481D01*
X139109260Y-84721000D01*
X139020740Y-84721000D01*
X138954557Y-84714481D01*
X138888373Y-84707963D01*
X138775147Y-84673616D01*
X138718533Y-84656443D01*
X138562011Y-84572779D01*
X138562009Y-84572778D01*
X138526271Y-84543448D01*
X138424814Y-84460186D01*
X138341552Y-84358729D01*
X138312222Y-84322991D01*
X138288373Y-84278373D01*
X138228557Y-84166467D01*
X138210983Y-84108533D01*
X138177037Y-83996627D01*
X138159641Y-83820000D01*
X138177037Y-83643373D01*
X138228557Y-83473534D01*
X138228557Y-83473533D01*
X138312221Y-83317011D01*
X138312222Y-83317009D01*
X138341552Y-83281271D01*
X138424814Y-83179814D01*
X138526271Y-83096552D01*
X138562009Y-83067222D01*
X138579913Y-83057652D01*
X138718533Y-82983557D01*
X138775147Y-82966384D01*
X138888373Y-82932037D01*
X138954557Y-82925519D01*
X139020740Y-82919000D01*
X139109260Y-82919000D01*
X139175443Y-82925519D01*
X139175443Y-82925519D01*
G37*
G36*
X139175442Y-80385518D02*
X139241627Y-80392037D01*
X139354853Y-80426384D01*
X139411467Y-80443557D01*
X139550087Y-80517652D01*
X139567991Y-80527222D01*
X139603729Y-80556552D01*
X139705186Y-80639814D01*
X139785369Y-80737519D01*
X139817778Y-80777009D01*
X139817779Y-80777011D01*
X139901443Y-80933533D01*
X139901443Y-80933534D01*
X139952963Y-81103373D01*
X139970359Y-81280000D01*
X139952963Y-81456627D01*
X139931243Y-81528228D01*
X139901443Y-81626467D01*
X139827348Y-81765087D01*
X139817778Y-81782991D01*
X139788448Y-81818729D01*
X139705186Y-81920186D01*
X139603729Y-82003448D01*
X139567991Y-82032778D01*
X139567989Y-82032779D01*
X139411467Y-82116443D01*
X139363478Y-82131000D01*
X139241627Y-82167963D01*
X139175443Y-82174481D01*
X139109260Y-82181000D01*
X139020740Y-82181000D01*
X138954557Y-82174481D01*
X138888373Y-82167963D01*
X138766522Y-82131000D01*
X138718533Y-82116443D01*
X138562011Y-82032779D01*
X138562009Y-82032778D01*
X138526271Y-82003448D01*
X138424814Y-81920186D01*
X138341552Y-81818729D01*
X138312222Y-81782991D01*
X138302652Y-81765087D01*
X138228557Y-81626467D01*
X138198757Y-81528228D01*
X138177037Y-81456627D01*
X138159641Y-81280000D01*
X138177037Y-81103373D01*
X138228557Y-80933534D01*
X138228557Y-80933533D01*
X138312221Y-80777011D01*
X138312222Y-80777009D01*
X138344631Y-80737519D01*
X138424814Y-80639814D01*
X138526271Y-80556552D01*
X138562009Y-80527222D01*
X138579913Y-80517652D01*
X138718533Y-80443557D01*
X138775147Y-80426384D01*
X138888373Y-80392037D01*
X138954558Y-80385518D01*
X139020740Y-80379000D01*
X139109260Y-80379000D01*
X139175442Y-80385518D01*
X139175442Y-80385518D01*
G37*
G36*
X136635442Y-80385518D02*
X136701627Y-80392037D01*
X136814853Y-80426384D01*
X136871467Y-80443557D01*
X137010087Y-80517652D01*
X137027991Y-80527222D01*
X137063729Y-80556552D01*
X137165186Y-80639814D01*
X137245369Y-80737519D01*
X137277778Y-80777009D01*
X137277779Y-80777011D01*
X137361443Y-80933533D01*
X137361443Y-80933534D01*
X137412963Y-81103373D01*
X137430359Y-81280000D01*
X137412963Y-81456627D01*
X137391243Y-81528228D01*
X137361443Y-81626467D01*
X137287348Y-81765087D01*
X137277778Y-81782991D01*
X137248448Y-81818729D01*
X137165186Y-81920186D01*
X137063729Y-82003448D01*
X137027991Y-82032778D01*
X137027989Y-82032779D01*
X136871467Y-82116443D01*
X136823478Y-82131000D01*
X136701627Y-82167963D01*
X136635443Y-82174481D01*
X136569260Y-82181000D01*
X136480740Y-82181000D01*
X136414557Y-82174481D01*
X136348373Y-82167963D01*
X136226522Y-82131000D01*
X136178533Y-82116443D01*
X136022011Y-82032779D01*
X136022009Y-82032778D01*
X135986271Y-82003448D01*
X135884814Y-81920186D01*
X135801552Y-81818729D01*
X135772222Y-81782991D01*
X135762652Y-81765087D01*
X135688557Y-81626467D01*
X135658757Y-81528228D01*
X135637037Y-81456627D01*
X135619641Y-81280000D01*
X135637037Y-81103373D01*
X135688557Y-80933534D01*
X135688557Y-80933533D01*
X135772221Y-80777011D01*
X135772222Y-80777009D01*
X135804631Y-80737519D01*
X135884814Y-80639814D01*
X135986271Y-80556552D01*
X136022009Y-80527222D01*
X136039913Y-80517652D01*
X136178533Y-80443557D01*
X136235147Y-80426384D01*
X136348373Y-80392037D01*
X136414558Y-80385518D01*
X136480740Y-80379000D01*
X136569260Y-80379000D01*
X136635442Y-80385518D01*
X136635442Y-80385518D01*
G37*
G36*
X132190442Y-80385518D02*
X132256627Y-80392037D01*
X132369853Y-80426384D01*
X132426467Y-80443557D01*
X132565087Y-80517652D01*
X132582991Y-80527222D01*
X132618729Y-80556552D01*
X132720186Y-80639814D01*
X132800369Y-80737519D01*
X132832778Y-80777009D01*
X132832779Y-80777011D01*
X132916443Y-80933533D01*
X132916443Y-80933534D01*
X132967963Y-81103373D01*
X132985359Y-81280000D01*
X132967963Y-81456627D01*
X132946243Y-81528228D01*
X132916443Y-81626467D01*
X132842348Y-81765087D01*
X132832778Y-81782991D01*
X132803448Y-81818729D01*
X132720186Y-81920186D01*
X132618729Y-82003448D01*
X132582991Y-82032778D01*
X132582989Y-82032779D01*
X132426467Y-82116443D01*
X132378478Y-82131000D01*
X132256627Y-82167963D01*
X132190443Y-82174481D01*
X132124260Y-82181000D01*
X132035740Y-82181000D01*
X131969557Y-82174481D01*
X131903373Y-82167963D01*
X131781522Y-82131000D01*
X131733533Y-82116443D01*
X131577011Y-82032779D01*
X131577009Y-82032778D01*
X131541271Y-82003448D01*
X131439814Y-81920186D01*
X131356552Y-81818729D01*
X131327222Y-81782991D01*
X131317652Y-81765087D01*
X131243557Y-81626467D01*
X131213757Y-81528228D01*
X131192037Y-81456627D01*
X131174641Y-81280000D01*
X131192037Y-81103373D01*
X131243557Y-80933534D01*
X131243557Y-80933533D01*
X131327221Y-80777011D01*
X131327222Y-80777009D01*
X131359631Y-80737519D01*
X131439814Y-80639814D01*
X131541271Y-80556552D01*
X131577009Y-80527222D01*
X131594913Y-80517652D01*
X131733533Y-80443557D01*
X131790147Y-80426384D01*
X131903373Y-80392037D01*
X131969558Y-80385518D01*
X132035740Y-80379000D01*
X132124260Y-80379000D01*
X132190442Y-80385518D01*
X132190442Y-80385518D01*
G37*
G36*
X124708228Y-80461703D02*
X124863100Y-80525853D01*
X125002481Y-80618985D01*
X125121015Y-80737519D01*
X125214147Y-80876900D01*
X125278297Y-81031772D01*
X125311000Y-81196184D01*
X125311000Y-81363816D01*
X125278297Y-81528228D01*
X125214147Y-81683100D01*
X125121015Y-81822481D01*
X125002481Y-81941015D01*
X124863100Y-82034147D01*
X124708228Y-82098297D01*
X124543816Y-82131000D01*
X124376184Y-82131000D01*
X124211772Y-82098297D01*
X124056900Y-82034147D01*
X123917519Y-81941015D01*
X123798985Y-81822481D01*
X123705853Y-81683100D01*
X123641703Y-81528228D01*
X123609000Y-81363816D01*
X123609000Y-81196184D01*
X123641703Y-81031772D01*
X123705853Y-80876900D01*
X123798985Y-80737519D01*
X123917519Y-80618985D01*
X124056900Y-80525853D01*
X124211772Y-80461703D01*
X124376184Y-80429000D01*
X124543816Y-80429000D01*
X124708228Y-80461703D01*
X124708228Y-80461703D01*
G37*
G36*
X109468228Y-80461703D02*
X109623100Y-80525853D01*
X109762481Y-80618985D01*
X109881015Y-80737519D01*
X109974147Y-80876900D01*
X110038297Y-81031772D01*
X110071000Y-81196184D01*
X110071000Y-81363816D01*
X110038297Y-81528228D01*
X109974147Y-81683100D01*
X109881015Y-81822481D01*
X109762481Y-81941015D01*
X109623100Y-82034147D01*
X109468228Y-82098297D01*
X109303816Y-82131000D01*
X109136184Y-82131000D01*
X108971772Y-82098297D01*
X108816900Y-82034147D01*
X108677519Y-81941015D01*
X108558985Y-81822481D01*
X108465853Y-81683100D01*
X108401703Y-81528228D01*
X108369000Y-81363816D01*
X108369000Y-81196184D01*
X108401703Y-81031772D01*
X108465853Y-80876900D01*
X108558985Y-80737519D01*
X108677519Y-80618985D01*
X108816900Y-80525853D01*
X108971772Y-80461703D01*
X109136184Y-80429000D01*
X109303816Y-80429000D01*
X109468228Y-80461703D01*
X109468228Y-80461703D01*
G37*
G36*
X102501000Y-80276000D02*
X100699000Y-80276000D01*
X100699000Y-78474000D01*
X102501000Y-78474000D01*
X102501000Y-80276000D01*
X102501000Y-80276000D01*
G37*
G36*
X139966000Y-79641000D02*
X138164000Y-79641000D01*
X138164000Y-77839000D01*
X139966000Y-77839000D01*
X139966000Y-79641000D01*
X139966000Y-79641000D01*
G37*
G36*
X136635443Y-77845519D02*
X136701627Y-77852037D01*
X136814853Y-77886384D01*
X136871467Y-77903557D01*
X137010087Y-77977652D01*
X137027991Y-77987222D01*
X137063729Y-78016552D01*
X137165186Y-78099814D01*
X137245369Y-78197519D01*
X137277778Y-78237009D01*
X137277779Y-78237011D01*
X137361443Y-78393533D01*
X137361443Y-78393534D01*
X137412963Y-78563373D01*
X137430359Y-78740000D01*
X137412963Y-78916627D01*
X137391243Y-78988228D01*
X137361443Y-79086467D01*
X137287348Y-79225087D01*
X137277778Y-79242991D01*
X137248448Y-79278729D01*
X137165186Y-79380186D01*
X137063729Y-79463448D01*
X137027991Y-79492778D01*
X137027989Y-79492779D01*
X136871467Y-79576443D01*
X136823478Y-79591000D01*
X136701627Y-79627963D01*
X136635442Y-79634482D01*
X136569260Y-79641000D01*
X136480740Y-79641000D01*
X136414558Y-79634482D01*
X136348373Y-79627963D01*
X136226522Y-79591000D01*
X136178533Y-79576443D01*
X136022011Y-79492779D01*
X136022009Y-79492778D01*
X135986271Y-79463448D01*
X135884814Y-79380186D01*
X135801552Y-79278729D01*
X135772222Y-79242991D01*
X135762652Y-79225087D01*
X135688557Y-79086467D01*
X135658757Y-78988228D01*
X135637037Y-78916627D01*
X135619641Y-78740000D01*
X135637037Y-78563373D01*
X135688557Y-78393534D01*
X135688557Y-78393533D01*
X135772221Y-78237011D01*
X135772222Y-78237009D01*
X135804631Y-78197519D01*
X135884814Y-78099814D01*
X135986271Y-78016552D01*
X136022009Y-77987222D01*
X136039913Y-77977652D01*
X136178533Y-77903557D01*
X136235147Y-77886384D01*
X136348373Y-77852037D01*
X136414557Y-77845519D01*
X136480740Y-77839000D01*
X136569260Y-77839000D01*
X136635443Y-77845519D01*
X136635443Y-77845519D01*
G37*
G36*
X132190443Y-77845519D02*
X132256627Y-77852037D01*
X132369853Y-77886384D01*
X132426467Y-77903557D01*
X132565087Y-77977652D01*
X132582991Y-77987222D01*
X132618729Y-78016552D01*
X132720186Y-78099814D01*
X132800369Y-78197519D01*
X132832778Y-78237009D01*
X132832779Y-78237011D01*
X132916443Y-78393533D01*
X132916443Y-78393534D01*
X132967963Y-78563373D01*
X132985359Y-78740000D01*
X132967963Y-78916627D01*
X132946243Y-78988228D01*
X132916443Y-79086467D01*
X132842348Y-79225087D01*
X132832778Y-79242991D01*
X132803448Y-79278729D01*
X132720186Y-79380186D01*
X132618729Y-79463448D01*
X132582991Y-79492778D01*
X132582989Y-79492779D01*
X132426467Y-79576443D01*
X132378478Y-79591000D01*
X132256627Y-79627963D01*
X132190442Y-79634482D01*
X132124260Y-79641000D01*
X132035740Y-79641000D01*
X131969558Y-79634482D01*
X131903373Y-79627963D01*
X131781522Y-79591000D01*
X131733533Y-79576443D01*
X131577011Y-79492779D01*
X131577009Y-79492778D01*
X131541271Y-79463448D01*
X131439814Y-79380186D01*
X131356552Y-79278729D01*
X131327222Y-79242991D01*
X131317652Y-79225087D01*
X131243557Y-79086467D01*
X131213757Y-78988228D01*
X131192037Y-78916627D01*
X131174641Y-78740000D01*
X131192037Y-78563373D01*
X131243557Y-78393534D01*
X131243557Y-78393533D01*
X131327221Y-78237011D01*
X131327222Y-78237009D01*
X131359631Y-78197519D01*
X131439814Y-78099814D01*
X131541271Y-78016552D01*
X131577009Y-77987222D01*
X131594913Y-77977652D01*
X131733533Y-77903557D01*
X131790147Y-77886384D01*
X131903373Y-77852037D01*
X131969557Y-77845519D01*
X132035740Y-77839000D01*
X132124260Y-77839000D01*
X132190443Y-77845519D01*
X132190443Y-77845519D01*
G37*
G36*
X124708228Y-77921703D02*
X124863100Y-77985853D01*
X125002481Y-78078985D01*
X125121015Y-78197519D01*
X125214147Y-78336900D01*
X125278297Y-78491772D01*
X125311000Y-78656184D01*
X125311000Y-78823816D01*
X125278297Y-78988228D01*
X125214147Y-79143100D01*
X125121015Y-79282481D01*
X125002481Y-79401015D01*
X124863100Y-79494147D01*
X124708228Y-79558297D01*
X124543816Y-79591000D01*
X124376184Y-79591000D01*
X124211772Y-79558297D01*
X124056900Y-79494147D01*
X123917519Y-79401015D01*
X123798985Y-79282481D01*
X123705853Y-79143100D01*
X123641703Y-78988228D01*
X123609000Y-78823816D01*
X123609000Y-78656184D01*
X123641703Y-78491772D01*
X123705853Y-78336900D01*
X123798985Y-78197519D01*
X123917519Y-78078985D01*
X124056900Y-77985853D01*
X124211772Y-77921703D01*
X124376184Y-77889000D01*
X124543816Y-77889000D01*
X124708228Y-77921703D01*
X124708228Y-77921703D01*
G37*
G36*
X109468228Y-77921703D02*
X109623100Y-77985853D01*
X109762481Y-78078985D01*
X109881015Y-78197519D01*
X109974147Y-78336900D01*
X110038297Y-78491772D01*
X110071000Y-78656184D01*
X110071000Y-78823816D01*
X110038297Y-78988228D01*
X109974147Y-79143100D01*
X109881015Y-79282481D01*
X109762481Y-79401015D01*
X109623100Y-79494147D01*
X109468228Y-79558297D01*
X109303816Y-79591000D01*
X109136184Y-79591000D01*
X108971772Y-79558297D01*
X108816900Y-79494147D01*
X108677519Y-79401015D01*
X108558985Y-79282481D01*
X108465853Y-79143100D01*
X108401703Y-78988228D01*
X108369000Y-78823816D01*
X108369000Y-78656184D01*
X108401703Y-78491772D01*
X108465853Y-78336900D01*
X108558985Y-78197519D01*
X108677519Y-78078985D01*
X108816900Y-77985853D01*
X108971772Y-77921703D01*
X109136184Y-77889000D01*
X109303816Y-77889000D01*
X109468228Y-77921703D01*
X109468228Y-77921703D01*
G37*
G36*
X132981000Y-77101000D02*
X131179000Y-77101000D01*
X131179000Y-75299000D01*
X132981000Y-75299000D01*
X132981000Y-77101000D01*
X132981000Y-77101000D01*
G37*
G36*
X109468228Y-75381703D02*
X109623100Y-75445853D01*
X109762481Y-75538985D01*
X109881015Y-75657519D01*
X109974147Y-75796900D01*
X110038297Y-75951772D01*
X110071000Y-76116184D01*
X110071000Y-76283816D01*
X110038297Y-76448228D01*
X109974147Y-76603100D01*
X109881015Y-76742481D01*
X109762481Y-76861015D01*
X109623100Y-76954147D01*
X109468228Y-77018297D01*
X109303816Y-77051000D01*
X109136184Y-77051000D01*
X108971772Y-77018297D01*
X108816900Y-76954147D01*
X108677519Y-76861015D01*
X108558985Y-76742481D01*
X108465853Y-76603100D01*
X108401703Y-76448228D01*
X108369000Y-76283816D01*
X108369000Y-76116184D01*
X108401703Y-75951772D01*
X108465853Y-75796900D01*
X108558985Y-75657519D01*
X108677519Y-75538985D01*
X108816900Y-75445853D01*
X108971772Y-75381703D01*
X109136184Y-75349000D01*
X109303816Y-75349000D01*
X109468228Y-75381703D01*
X109468228Y-75381703D01*
G37*
G36*
X124708228Y-75381703D02*
X124863100Y-75445853D01*
X125002481Y-75538985D01*
X125121015Y-75657519D01*
X125214147Y-75796900D01*
X125278297Y-75951772D01*
X125311000Y-76116184D01*
X125311000Y-76283816D01*
X125278297Y-76448228D01*
X125214147Y-76603100D01*
X125121015Y-76742481D01*
X125002481Y-76861015D01*
X124863100Y-76954147D01*
X124708228Y-77018297D01*
X124543816Y-77051000D01*
X124376184Y-77051000D01*
X124211772Y-77018297D01*
X124056900Y-76954147D01*
X123917519Y-76861015D01*
X123798985Y-76742481D01*
X123705853Y-76603100D01*
X123641703Y-76448228D01*
X123609000Y-76283816D01*
X123609000Y-76116184D01*
X123641703Y-75951772D01*
X123705853Y-75796900D01*
X123798985Y-75657519D01*
X123917519Y-75538985D01*
X124056900Y-75445853D01*
X124211772Y-75381703D01*
X124376184Y-75349000D01*
X124543816Y-75349000D01*
X124708228Y-75381703D01*
X124708228Y-75381703D01*
G37*
G36*
X101848228Y-74746703D02*
X102003100Y-74810853D01*
X102142481Y-74903985D01*
X102261015Y-75022519D01*
X102354147Y-75161900D01*
X102418297Y-75316772D01*
X102451000Y-75481184D01*
X102451000Y-75648816D01*
X102418297Y-75813228D01*
X102354147Y-75968100D01*
X102261015Y-76107481D01*
X102142481Y-76226015D01*
X102003100Y-76319147D01*
X101848228Y-76383297D01*
X101683816Y-76416000D01*
X101516184Y-76416000D01*
X101351772Y-76383297D01*
X101196900Y-76319147D01*
X101057519Y-76226015D01*
X100938985Y-76107481D01*
X100845853Y-75968100D01*
X100781703Y-75813228D01*
X100749000Y-75648816D01*
X100749000Y-75481184D01*
X100781703Y-75316772D01*
X100845853Y-75161900D01*
X100938985Y-75022519D01*
X101057519Y-74903985D01*
X101196900Y-74810853D01*
X101351772Y-74746703D01*
X101516184Y-74714000D01*
X101683816Y-74714000D01*
X101848228Y-74746703D01*
X101848228Y-74746703D01*
G37*
G36*
X105023228Y-74746703D02*
X105178100Y-74810853D01*
X105317481Y-74903985D01*
X105436015Y-75022519D01*
X105529147Y-75161900D01*
X105593297Y-75316772D01*
X105626000Y-75481184D01*
X105626000Y-75648816D01*
X105593297Y-75813228D01*
X105529147Y-75968100D01*
X105436015Y-76107481D01*
X105317481Y-76226015D01*
X105178100Y-76319147D01*
X105023228Y-76383297D01*
X104858816Y-76416000D01*
X104691184Y-76416000D01*
X104526772Y-76383297D01*
X104371900Y-76319147D01*
X104232519Y-76226015D01*
X104113985Y-76107481D01*
X104020853Y-75968100D01*
X103956703Y-75813228D01*
X103924000Y-75648816D01*
X103924000Y-75481184D01*
X103956703Y-75316772D01*
X104020853Y-75161900D01*
X104113985Y-75022519D01*
X104232519Y-74903985D01*
X104371900Y-74810853D01*
X104526772Y-74746703D01*
X104691184Y-74714000D01*
X104858816Y-74714000D01*
X105023228Y-74746703D01*
X105023228Y-74746703D01*
G37*
G36*
X124708228Y-72841703D02*
X124863100Y-72905853D01*
X125002481Y-72998985D01*
X125121015Y-73117519D01*
X125214147Y-73256900D01*
X125278297Y-73411772D01*
X125311000Y-73576184D01*
X125311000Y-73743816D01*
X125278297Y-73908228D01*
X125214147Y-74063100D01*
X125121015Y-74202481D01*
X125002481Y-74321015D01*
X124863100Y-74414147D01*
X124708228Y-74478297D01*
X124543816Y-74511000D01*
X124376184Y-74511000D01*
X124211772Y-74478297D01*
X124056900Y-74414147D01*
X123917519Y-74321015D01*
X123798985Y-74202481D01*
X123705853Y-74063100D01*
X123641703Y-73908228D01*
X123609000Y-73743816D01*
X123609000Y-73576184D01*
X123641703Y-73411772D01*
X123705853Y-73256900D01*
X123798985Y-73117519D01*
X123917519Y-72998985D01*
X124056900Y-72905853D01*
X124211772Y-72841703D01*
X124376184Y-72809000D01*
X124543816Y-72809000D01*
X124708228Y-72841703D01*
X124708228Y-72841703D01*
G37*
G36*
X109468228Y-72841703D02*
X109623100Y-72905853D01*
X109762481Y-72998985D01*
X109881015Y-73117519D01*
X109974147Y-73256900D01*
X110038297Y-73411772D01*
X110071000Y-73576184D01*
X110071000Y-73743816D01*
X110038297Y-73908228D01*
X109974147Y-74063100D01*
X109881015Y-74202481D01*
X109762481Y-74321015D01*
X109623100Y-74414147D01*
X109468228Y-74478297D01*
X109303816Y-74511000D01*
X109136184Y-74511000D01*
X108971772Y-74478297D01*
X108816900Y-74414147D01*
X108677519Y-74321015D01*
X108558985Y-74202481D01*
X108465853Y-74063100D01*
X108401703Y-73908228D01*
X108369000Y-73743816D01*
X108369000Y-73576184D01*
X108401703Y-73411772D01*
X108465853Y-73256900D01*
X108558985Y-73117519D01*
X108677519Y-72998985D01*
X108816900Y-72905853D01*
X108971772Y-72841703D01*
X109136184Y-72809000D01*
X109303816Y-72809000D01*
X109468228Y-72841703D01*
X109468228Y-72841703D01*
G37*
G36*
X109468228Y-70301703D02*
X109623100Y-70365853D01*
X109762481Y-70458985D01*
X109881015Y-70577519D01*
X109974147Y-70716900D01*
X110038297Y-70871772D01*
X110071000Y-71036184D01*
X110071000Y-71203816D01*
X110038297Y-71368228D01*
X109974147Y-71523100D01*
X109881015Y-71662481D01*
X109762481Y-71781015D01*
X109623100Y-71874147D01*
X109468228Y-71938297D01*
X109303816Y-71971000D01*
X109136184Y-71971000D01*
X108971772Y-71938297D01*
X108816900Y-71874147D01*
X108677519Y-71781015D01*
X108558985Y-71662481D01*
X108465853Y-71523100D01*
X108401703Y-71368228D01*
X108369000Y-71203816D01*
X108369000Y-71036184D01*
X108401703Y-70871772D01*
X108465853Y-70716900D01*
X108558985Y-70577519D01*
X108677519Y-70458985D01*
X108816900Y-70365853D01*
X108971772Y-70301703D01*
X109136184Y-70269000D01*
X109303816Y-70269000D01*
X109468228Y-70301703D01*
X109468228Y-70301703D01*
G37*
G36*
X124708228Y-70301703D02*
X124863100Y-70365853D01*
X125002481Y-70458985D01*
X125121015Y-70577519D01*
X125214147Y-70716900D01*
X125278297Y-70871772D01*
X125311000Y-71036184D01*
X125311000Y-71203816D01*
X125278297Y-71368228D01*
X125214147Y-71523100D01*
X125121015Y-71662481D01*
X125002481Y-71781015D01*
X124863100Y-71874147D01*
X124708228Y-71938297D01*
X124543816Y-71971000D01*
X124376184Y-71971000D01*
X124211772Y-71938297D01*
X124056900Y-71874147D01*
X123917519Y-71781015D01*
X123798985Y-71662481D01*
X123705853Y-71523100D01*
X123641703Y-71368228D01*
X123609000Y-71203816D01*
X123609000Y-71036184D01*
X123641703Y-70871772D01*
X123705853Y-70716900D01*
X123798985Y-70577519D01*
X123917519Y-70458985D01*
X124056900Y-70365853D01*
X124211772Y-70301703D01*
X124376184Y-70269000D01*
X124543816Y-70269000D01*
X124708228Y-70301703D01*
X124708228Y-70301703D01*
G37*
G36*
X124708228Y-67761703D02*
X124863100Y-67825853D01*
X125002481Y-67918985D01*
X125121015Y-68037519D01*
X125214147Y-68176900D01*
X125278297Y-68331772D01*
X125311000Y-68496184D01*
X125311000Y-68663816D01*
X125278297Y-68828228D01*
X125214147Y-68983100D01*
X125121015Y-69122481D01*
X125002481Y-69241015D01*
X124863100Y-69334147D01*
X124708228Y-69398297D01*
X124543816Y-69431000D01*
X124376184Y-69431000D01*
X124211772Y-69398297D01*
X124056900Y-69334147D01*
X123917519Y-69241015D01*
X123798985Y-69122481D01*
X123705853Y-68983100D01*
X123641703Y-68828228D01*
X123609000Y-68663816D01*
X123609000Y-68496184D01*
X123641703Y-68331772D01*
X123705853Y-68176900D01*
X123798985Y-68037519D01*
X123917519Y-67918985D01*
X124056900Y-67825853D01*
X124211772Y-67761703D01*
X124376184Y-67729000D01*
X124543816Y-67729000D01*
X124708228Y-67761703D01*
X124708228Y-67761703D01*
G37*
G36*
X109468228Y-67761703D02*
X109623100Y-67825853D01*
X109762481Y-67918985D01*
X109881015Y-68037519D01*
X109974147Y-68176900D01*
X110038297Y-68331772D01*
X110071000Y-68496184D01*
X110071000Y-68663816D01*
X110038297Y-68828228D01*
X109974147Y-68983100D01*
X109881015Y-69122481D01*
X109762481Y-69241015D01*
X109623100Y-69334147D01*
X109468228Y-69398297D01*
X109303816Y-69431000D01*
X109136184Y-69431000D01*
X108971772Y-69398297D01*
X108816900Y-69334147D01*
X108677519Y-69241015D01*
X108558985Y-69122481D01*
X108465853Y-68983100D01*
X108401703Y-68828228D01*
X108369000Y-68663816D01*
X108369000Y-68496184D01*
X108401703Y-68331772D01*
X108465853Y-68176900D01*
X108558985Y-68037519D01*
X108677519Y-67918985D01*
X108816900Y-67825853D01*
X108971772Y-67761703D01*
X109136184Y-67729000D01*
X109303816Y-67729000D01*
X109468228Y-67761703D01*
X109468228Y-67761703D01*
G37*
G36*
X138211000Y-67091000D02*
X136109000Y-67091000D01*
X136109000Y-64989000D01*
X138211000Y-64989000D01*
X138211000Y-67091000D01*
X138211000Y-67091000D01*
G37*
G36*
X132466565Y-65029389D02*
X132657834Y-65108615D01*
X132829976Y-65223637D01*
X132976363Y-65370024D01*
X133091385Y-65542166D01*
X133170611Y-65733435D01*
X133211000Y-65936484D01*
X133211000Y-66143516D01*
X133170611Y-66346565D01*
X133091385Y-66537834D01*
X132976363Y-66709976D01*
X132829976Y-66856363D01*
X132657834Y-66971385D01*
X132466565Y-67050611D01*
X132263516Y-67091000D01*
X132056484Y-67091000D01*
X131853435Y-67050611D01*
X131662166Y-66971385D01*
X131490024Y-66856363D01*
X131343637Y-66709976D01*
X131228615Y-66537834D01*
X131149389Y-66346565D01*
X131109000Y-66143516D01*
X131109000Y-65936484D01*
X131149389Y-65733435D01*
X131228615Y-65542166D01*
X131343637Y-65370024D01*
X131490024Y-65223637D01*
X131662166Y-65108615D01*
X131853435Y-65029389D01*
X132056484Y-64989000D01*
X132263516Y-64989000D01*
X132466565Y-65029389D01*
X132466565Y-65029389D01*
G37*
G36*
X124708228Y-65221703D02*
X124863100Y-65285853D01*
X125002481Y-65378985D01*
X125121015Y-65497519D01*
X125214147Y-65636900D01*
X125278297Y-65791772D01*
X125311000Y-65956184D01*
X125311000Y-66123816D01*
X125278297Y-66288228D01*
X125214147Y-66443100D01*
X125121015Y-66582481D01*
X125002481Y-66701015D01*
X124863100Y-66794147D01*
X124708228Y-66858297D01*
X124543816Y-66891000D01*
X124376184Y-66891000D01*
X124211772Y-66858297D01*
X124056900Y-66794147D01*
X123917519Y-66701015D01*
X123798985Y-66582481D01*
X123705853Y-66443100D01*
X123641703Y-66288228D01*
X123609000Y-66123816D01*
X123609000Y-65956184D01*
X123641703Y-65791772D01*
X123705853Y-65636900D01*
X123798985Y-65497519D01*
X123917519Y-65378985D01*
X124056900Y-65285853D01*
X124211772Y-65221703D01*
X124376184Y-65189000D01*
X124543816Y-65189000D01*
X124708228Y-65221703D01*
X124708228Y-65221703D01*
G37*
G36*
X109468228Y-65221703D02*
X109623100Y-65285853D01*
X109762481Y-65378985D01*
X109881015Y-65497519D01*
X109974147Y-65636900D01*
X110038297Y-65791772D01*
X110071000Y-65956184D01*
X110071000Y-66123816D01*
X110038297Y-66288228D01*
X109974147Y-66443100D01*
X109881015Y-66582481D01*
X109762481Y-66701015D01*
X109623100Y-66794147D01*
X109468228Y-66858297D01*
X109303816Y-66891000D01*
X109136184Y-66891000D01*
X108971772Y-66858297D01*
X108816900Y-66794147D01*
X108677519Y-66701015D01*
X108558985Y-66582481D01*
X108465853Y-66443100D01*
X108401703Y-66288228D01*
X108369000Y-66123816D01*
X108369000Y-65956184D01*
X108401703Y-65791772D01*
X108465853Y-65636900D01*
X108558985Y-65497519D01*
X108677519Y-65378985D01*
X108816900Y-65285853D01*
X108971772Y-65221703D01*
X109136184Y-65189000D01*
X109303816Y-65189000D01*
X109468228Y-65221703D01*
X109468228Y-65221703D01*
G37*
G36*
X104941821Y-64566313D02*
X104941824Y-64566314D01*
X104941825Y-64566314D01*
X105102239Y-64614975D01*
X105102241Y-64614976D01*
X105102244Y-64614977D01*
X105250078Y-64693995D01*
X105379659Y-64800341D01*
X105486005Y-64929922D01*
X105565023Y-65077756D01*
X105565024Y-65077759D01*
X105565025Y-65077761D01*
X105609275Y-65223635D01*
X105613687Y-65238179D01*
X105630117Y-65405000D01*
X105613687Y-65571821D01*
X105613686Y-65571824D01*
X105613686Y-65571825D01*
X105593946Y-65636900D01*
X105565023Y-65732244D01*
X105486005Y-65880078D01*
X105379659Y-66009659D01*
X105250078Y-66116005D01*
X105102244Y-66195023D01*
X105102241Y-66195024D01*
X105102239Y-66195025D01*
X104941825Y-66243686D01*
X104941824Y-66243686D01*
X104941821Y-66243687D01*
X104816804Y-66256000D01*
X104733196Y-66256000D01*
X104608179Y-66243687D01*
X104608176Y-66243686D01*
X104608175Y-66243686D01*
X104447761Y-66195025D01*
X104447759Y-66195024D01*
X104447756Y-66195023D01*
X104299922Y-66116005D01*
X104170341Y-66009659D01*
X104063995Y-65880078D01*
X103984977Y-65732244D01*
X103956055Y-65636900D01*
X103936314Y-65571825D01*
X103936314Y-65571824D01*
X103936313Y-65571821D01*
X103919883Y-65405000D01*
X103936313Y-65238179D01*
X103940725Y-65223635D01*
X103984975Y-65077761D01*
X103984976Y-65077759D01*
X103984977Y-65077756D01*
X104063995Y-64929922D01*
X104170341Y-64800341D01*
X104299922Y-64693995D01*
X104447756Y-64614977D01*
X104447759Y-64614976D01*
X104447761Y-64614975D01*
X104608175Y-64566314D01*
X104608176Y-64566314D01*
X104608179Y-64566313D01*
X104733196Y-64554000D01*
X104816804Y-64554000D01*
X104941821Y-64566313D01*
X104941821Y-64566313D01*
G37*
G36*
X101766821Y-64566313D02*
X101766824Y-64566314D01*
X101766825Y-64566314D01*
X101927239Y-64614975D01*
X101927241Y-64614976D01*
X101927244Y-64614977D01*
X102075078Y-64693995D01*
X102204659Y-64800341D01*
X102311005Y-64929922D01*
X102390023Y-65077756D01*
X102390024Y-65077759D01*
X102390025Y-65077761D01*
X102434275Y-65223635D01*
X102438687Y-65238179D01*
X102455117Y-65405000D01*
X102438687Y-65571821D01*
X102438686Y-65571824D01*
X102438686Y-65571825D01*
X102418946Y-65636900D01*
X102390023Y-65732244D01*
X102311005Y-65880078D01*
X102204659Y-66009659D01*
X102075078Y-66116005D01*
X101927244Y-66195023D01*
X101927241Y-66195024D01*
X101927239Y-66195025D01*
X101766825Y-66243686D01*
X101766824Y-66243686D01*
X101766821Y-66243687D01*
X101641804Y-66256000D01*
X101558196Y-66256000D01*
X101433179Y-66243687D01*
X101433176Y-66243686D01*
X101433175Y-66243686D01*
X101272761Y-66195025D01*
X101272759Y-66195024D01*
X101272756Y-66195023D01*
X101124922Y-66116005D01*
X100995341Y-66009659D01*
X100888995Y-65880078D01*
X100809977Y-65732244D01*
X100781055Y-65636900D01*
X100761314Y-65571825D01*
X100761314Y-65571824D01*
X100761313Y-65571821D01*
X100744883Y-65405000D01*
X100761313Y-65238179D01*
X100765725Y-65223635D01*
X100809975Y-65077761D01*
X100809976Y-65077759D01*
X100809977Y-65077756D01*
X100888995Y-64929922D01*
X100995341Y-64800341D01*
X101124922Y-64693995D01*
X101272756Y-64614977D01*
X101272759Y-64614976D01*
X101272761Y-64614975D01*
X101433175Y-64566314D01*
X101433176Y-64566314D01*
X101433179Y-64566313D01*
X101558196Y-64554000D01*
X101641804Y-64554000D01*
X101766821Y-64566313D01*
X101766821Y-64566313D01*
G37*
G36*
X124708228Y-62681703D02*
X124863100Y-62745853D01*
X125002481Y-62838985D01*
X125121015Y-62957519D01*
X125214147Y-63096900D01*
X125278297Y-63251772D01*
X125311000Y-63416184D01*
X125311000Y-63583816D01*
X125278297Y-63748228D01*
X125214147Y-63903100D01*
X125121015Y-64042481D01*
X125002481Y-64161015D01*
X124863100Y-64254147D01*
X124708228Y-64318297D01*
X124543816Y-64351000D01*
X124376184Y-64351000D01*
X124211772Y-64318297D01*
X124056900Y-64254147D01*
X123917519Y-64161015D01*
X123798985Y-64042481D01*
X123705853Y-63903100D01*
X123641703Y-63748228D01*
X123609000Y-63583816D01*
X123609000Y-63416184D01*
X123641703Y-63251772D01*
X123705853Y-63096900D01*
X123798985Y-62957519D01*
X123917519Y-62838985D01*
X124056900Y-62745853D01*
X124211772Y-62681703D01*
X124376184Y-62649000D01*
X124543816Y-62649000D01*
X124708228Y-62681703D01*
X124708228Y-62681703D01*
G37*
G36*
X109468228Y-62681703D02*
X109623100Y-62745853D01*
X109762481Y-62838985D01*
X109881015Y-62957519D01*
X109974147Y-63096900D01*
X110038297Y-63251772D01*
X110071000Y-63416184D01*
X110071000Y-63583816D01*
X110038297Y-63748228D01*
X109974147Y-63903100D01*
X109881015Y-64042481D01*
X109762481Y-64161015D01*
X109623100Y-64254147D01*
X109468228Y-64318297D01*
X109303816Y-64351000D01*
X109136184Y-64351000D01*
X108971772Y-64318297D01*
X108816900Y-64254147D01*
X108677519Y-64161015D01*
X108558985Y-64042481D01*
X108465853Y-63903100D01*
X108401703Y-63748228D01*
X108369000Y-63583816D01*
X108369000Y-63416184D01*
X108401703Y-63251772D01*
X108465853Y-63096900D01*
X108558985Y-62957519D01*
X108677519Y-62838985D01*
X108816900Y-62745853D01*
X108971772Y-62681703D01*
X109136184Y-62649000D01*
X109303816Y-62649000D01*
X109468228Y-62681703D01*
X109468228Y-62681703D01*
G37*
G36*
X101848228Y-61411703D02*
X102003100Y-61475853D01*
X102142481Y-61568985D01*
X102261015Y-61687519D01*
X102354147Y-61826900D01*
X102418297Y-61981772D01*
X102451000Y-62146184D01*
X102451000Y-62313816D01*
X102418297Y-62478228D01*
X102354147Y-62633100D01*
X102261015Y-62772481D01*
X102142481Y-62891015D01*
X102003100Y-62984147D01*
X101848228Y-63048297D01*
X101683816Y-63081000D01*
X101516184Y-63081000D01*
X101351772Y-63048297D01*
X101196900Y-62984147D01*
X101057519Y-62891015D01*
X100938985Y-62772481D01*
X100845853Y-62633100D01*
X100781703Y-62478228D01*
X100749000Y-62313816D01*
X100749000Y-62146184D01*
X100781703Y-61981772D01*
X100845853Y-61826900D01*
X100938985Y-61687519D01*
X101057519Y-61568985D01*
X101196900Y-61475853D01*
X101351772Y-61411703D01*
X101516184Y-61379000D01*
X101683816Y-61379000D01*
X101848228Y-61411703D01*
X101848228Y-61411703D01*
G37*
G36*
X109468228Y-60141703D02*
X109623100Y-60205853D01*
X109762481Y-60298985D01*
X109881015Y-60417519D01*
X109974147Y-60556900D01*
X110038297Y-60711772D01*
X110071000Y-60876184D01*
X110071000Y-61043816D01*
X110038297Y-61208228D01*
X109974147Y-61363100D01*
X109881015Y-61502481D01*
X109762481Y-61621015D01*
X109623100Y-61714147D01*
X109468228Y-61778297D01*
X109303816Y-61811000D01*
X109136184Y-61811000D01*
X108971772Y-61778297D01*
X108816900Y-61714147D01*
X108677519Y-61621015D01*
X108558985Y-61502481D01*
X108465853Y-61363100D01*
X108401703Y-61208228D01*
X108369000Y-61043816D01*
X108369000Y-60876184D01*
X108401703Y-60711772D01*
X108465853Y-60556900D01*
X108558985Y-60417519D01*
X108677519Y-60298985D01*
X108816900Y-60205853D01*
X108971772Y-60141703D01*
X109136184Y-60109000D01*
X109303816Y-60109000D01*
X109468228Y-60141703D01*
X109468228Y-60141703D01*
G37*
G36*
X124708228Y-60141703D02*
X124863100Y-60205853D01*
X125002481Y-60298985D01*
X125121015Y-60417519D01*
X125214147Y-60556900D01*
X125278297Y-60711772D01*
X125311000Y-60876184D01*
X125311000Y-61043816D01*
X125278297Y-61208228D01*
X125214147Y-61363100D01*
X125121015Y-61502481D01*
X125002481Y-61621015D01*
X124863100Y-61714147D01*
X124708228Y-61778297D01*
X124543816Y-61811000D01*
X124376184Y-61811000D01*
X124211772Y-61778297D01*
X124056900Y-61714147D01*
X123917519Y-61621015D01*
X123798985Y-61502481D01*
X123705853Y-61363100D01*
X123641703Y-61208228D01*
X123609000Y-61043816D01*
X123609000Y-60876184D01*
X123641703Y-60711772D01*
X123705853Y-60556900D01*
X123798985Y-60417519D01*
X123917519Y-60298985D01*
X124056900Y-60205853D01*
X124211772Y-60141703D01*
X124376184Y-60109000D01*
X124543816Y-60109000D01*
X124708228Y-60141703D01*
X124708228Y-60141703D01*
G37*
G36*
X109468228Y-57601703D02*
X109623100Y-57665853D01*
X109762481Y-57758985D01*
X109881015Y-57877519D01*
X109974147Y-58016900D01*
X110038297Y-58171772D01*
X110071000Y-58336184D01*
X110071000Y-58503816D01*
X110038297Y-58668228D01*
X109974147Y-58823100D01*
X109881015Y-58962481D01*
X109762481Y-59081015D01*
X109623100Y-59174147D01*
X109468228Y-59238297D01*
X109303816Y-59271000D01*
X109136184Y-59271000D01*
X108971772Y-59238297D01*
X108816900Y-59174147D01*
X108677519Y-59081015D01*
X108558985Y-58962481D01*
X108465853Y-58823100D01*
X108401703Y-58668228D01*
X108369000Y-58503816D01*
X108369000Y-58336184D01*
X108401703Y-58171772D01*
X108465853Y-58016900D01*
X108558985Y-57877519D01*
X108677519Y-57758985D01*
X108816900Y-57665853D01*
X108971772Y-57601703D01*
X109136184Y-57569000D01*
X109303816Y-57569000D01*
X109468228Y-57601703D01*
X109468228Y-57601703D01*
G37*
G36*
X124708228Y-57601703D02*
X124863100Y-57665853D01*
X125002481Y-57758985D01*
X125121015Y-57877519D01*
X125214147Y-58016900D01*
X125278297Y-58171772D01*
X125311000Y-58336184D01*
X125311000Y-58503816D01*
X125278297Y-58668228D01*
X125214147Y-58823100D01*
X125121015Y-58962481D01*
X125002481Y-59081015D01*
X124863100Y-59174147D01*
X124708228Y-59238297D01*
X124543816Y-59271000D01*
X124376184Y-59271000D01*
X124211772Y-59238297D01*
X124056900Y-59174147D01*
X123917519Y-59081015D01*
X123798985Y-58962481D01*
X123705853Y-58823100D01*
X123641703Y-58668228D01*
X123609000Y-58503816D01*
X123609000Y-58336184D01*
X123641703Y-58171772D01*
X123705853Y-58016900D01*
X123798985Y-57877519D01*
X123917519Y-57758985D01*
X124056900Y-57665853D01*
X124211772Y-57601703D01*
X124376184Y-57569000D01*
X124543816Y-57569000D01*
X124708228Y-57601703D01*
X124708228Y-57601703D01*
G37*
G36*
X140551000Y-56731000D02*
X138849000Y-56731000D01*
X138849000Y-55029000D01*
X140551000Y-55029000D01*
X140551000Y-56731000D01*
X140551000Y-56731000D01*
G37*
G36*
X137448228Y-55061703D02*
X137603100Y-55125853D01*
X137742481Y-55218985D01*
X137861015Y-55337519D01*
X137954147Y-55476900D01*
X138018297Y-55631772D01*
X138051000Y-55796184D01*
X138051000Y-55963816D01*
X138018297Y-56128228D01*
X137954147Y-56283100D01*
X137861015Y-56422481D01*
X137742481Y-56541015D01*
X137603100Y-56634147D01*
X137448228Y-56698297D01*
X137283816Y-56731000D01*
X137116184Y-56731000D01*
X136951772Y-56698297D01*
X136796900Y-56634147D01*
X136657519Y-56541015D01*
X136538985Y-56422481D01*
X136445853Y-56283100D01*
X136381703Y-56128228D01*
X136349000Y-55963816D01*
X136349000Y-55796184D01*
X136381703Y-55631772D01*
X136445853Y-55476900D01*
X136538985Y-55337519D01*
X136657519Y-55218985D01*
X136796900Y-55125853D01*
X136951772Y-55061703D01*
X137116184Y-55029000D01*
X137283816Y-55029000D01*
X137448228Y-55061703D01*
X137448228Y-55061703D01*
G37*
G36*
X124708228Y-55061703D02*
X124863100Y-55125853D01*
X125002481Y-55218985D01*
X125121015Y-55337519D01*
X125214147Y-55476900D01*
X125278297Y-55631772D01*
X125311000Y-55796184D01*
X125311000Y-55963816D01*
X125278297Y-56128228D01*
X125214147Y-56283100D01*
X125121015Y-56422481D01*
X125002481Y-56541015D01*
X124863100Y-56634147D01*
X124708228Y-56698297D01*
X124543816Y-56731000D01*
X124376184Y-56731000D01*
X124211772Y-56698297D01*
X124056900Y-56634147D01*
X123917519Y-56541015D01*
X123798985Y-56422481D01*
X123705853Y-56283100D01*
X123641703Y-56128228D01*
X123609000Y-55963816D01*
X123609000Y-55796184D01*
X123641703Y-55631772D01*
X123705853Y-55476900D01*
X123798985Y-55337519D01*
X123917519Y-55218985D01*
X124056900Y-55125853D01*
X124211772Y-55061703D01*
X124376184Y-55029000D01*
X124543816Y-55029000D01*
X124708228Y-55061703D01*
X124708228Y-55061703D01*
G37*
G36*
X109468228Y-55061703D02*
X109623100Y-55125853D01*
X109762481Y-55218985D01*
X109881015Y-55337519D01*
X109974147Y-55476900D01*
X110038297Y-55631772D01*
X110071000Y-55796184D01*
X110071000Y-55963816D01*
X110038297Y-56128228D01*
X109974147Y-56283100D01*
X109881015Y-56422481D01*
X109762481Y-56541015D01*
X109623100Y-56634147D01*
X109468228Y-56698297D01*
X109303816Y-56731000D01*
X109136184Y-56731000D01*
X108971772Y-56698297D01*
X108816900Y-56634147D01*
X108677519Y-56541015D01*
X108558985Y-56422481D01*
X108465853Y-56283100D01*
X108401703Y-56128228D01*
X108369000Y-55963816D01*
X108369000Y-55796184D01*
X108401703Y-55631772D01*
X108465853Y-55476900D01*
X108558985Y-55337519D01*
X108677519Y-55218985D01*
X108816900Y-55125853D01*
X108971772Y-55061703D01*
X109136184Y-55029000D01*
X109303816Y-55029000D01*
X109468228Y-55061703D01*
X109468228Y-55061703D01*
G37*
G36*
X132190443Y-52445519D02*
X132256627Y-52452037D01*
X132369853Y-52486384D01*
X132426467Y-52503557D01*
X132504146Y-52545078D01*
X132582991Y-52587222D01*
X132618729Y-52616552D01*
X132720186Y-52699814D01*
X132800369Y-52797519D01*
X132832778Y-52837009D01*
X132832779Y-52837011D01*
X132916443Y-52993533D01*
X132916443Y-52993534D01*
X132967963Y-53163373D01*
X132985359Y-53340000D01*
X132967963Y-53516627D01*
X132946243Y-53588228D01*
X132916443Y-53686467D01*
X132842348Y-53825087D01*
X132832778Y-53842991D01*
X132803448Y-53878729D01*
X132720186Y-53980186D01*
X132618729Y-54063448D01*
X132582991Y-54092778D01*
X132582989Y-54092779D01*
X132426467Y-54176443D01*
X132378478Y-54191000D01*
X132256627Y-54227963D01*
X132190442Y-54234482D01*
X132124260Y-54241000D01*
X132035740Y-54241000D01*
X131969558Y-54234482D01*
X131903373Y-54227963D01*
X131781522Y-54191000D01*
X131733533Y-54176443D01*
X131577011Y-54092779D01*
X131577009Y-54092778D01*
X131541271Y-54063448D01*
X131439814Y-53980186D01*
X131356552Y-53878729D01*
X131327222Y-53842991D01*
X131317652Y-53825087D01*
X131243557Y-53686467D01*
X131213757Y-53588228D01*
X131192037Y-53516627D01*
X131174641Y-53340000D01*
X131192037Y-53163373D01*
X131243557Y-52993534D01*
X131243557Y-52993533D01*
X131327221Y-52837011D01*
X131327222Y-52837009D01*
X131359631Y-52797519D01*
X131439814Y-52699814D01*
X131541271Y-52616552D01*
X131577009Y-52587222D01*
X131655854Y-52545078D01*
X131733533Y-52503557D01*
X131790147Y-52486384D01*
X131903373Y-52452037D01*
X131969558Y-52445518D01*
X132035740Y-52439000D01*
X132124260Y-52439000D01*
X132190443Y-52445519D01*
X132190443Y-52445519D01*
G37*
G36*
X130441000Y-54241000D02*
X128639000Y-54241000D01*
X128639000Y-52439000D01*
X130441000Y-52439000D01*
X130441000Y-54241000D01*
X130441000Y-54241000D01*
G37*
G36*
X124708228Y-52521703D02*
X124863100Y-52585853D01*
X125002481Y-52678985D01*
X125121015Y-52797519D01*
X125214147Y-52936900D01*
X125278297Y-53091772D01*
X125311000Y-53256184D01*
X125311000Y-53423816D01*
X125278297Y-53588228D01*
X125214147Y-53743100D01*
X125121015Y-53882481D01*
X125002481Y-54001015D01*
X124863100Y-54094147D01*
X124708228Y-54158297D01*
X124543816Y-54191000D01*
X124376184Y-54191000D01*
X124211772Y-54158297D01*
X124056900Y-54094147D01*
X123917519Y-54001015D01*
X123798985Y-53882481D01*
X123705853Y-53743100D01*
X123641703Y-53588228D01*
X123609000Y-53423816D01*
X123609000Y-53256184D01*
X123641703Y-53091772D01*
X123705853Y-52936900D01*
X123798985Y-52797519D01*
X123917519Y-52678985D01*
X124056900Y-52585853D01*
X124211772Y-52521703D01*
X124376184Y-52489000D01*
X124543816Y-52489000D01*
X124708228Y-52521703D01*
X124708228Y-52521703D01*
G37*
G36*
X110071000Y-54191000D02*
X108369000Y-54191000D01*
X108369000Y-52489000D01*
X110071000Y-52489000D01*
X110071000Y-54191000D01*
X110071000Y-54191000D01*
G37*
G36*
X101766821Y-51231313D02*
X101766824Y-51231314D01*
X101766825Y-51231314D01*
X101927239Y-51279975D01*
X101927241Y-51279976D01*
X101927244Y-51279977D01*
X102075078Y-51358995D01*
X102204659Y-51465341D01*
X102311005Y-51594922D01*
X102390023Y-51742756D01*
X102438687Y-51903179D01*
X102455117Y-52070000D01*
X102438687Y-52236821D01*
X102390023Y-52397244D01*
X102311005Y-52545078D01*
X102204659Y-52674659D01*
X102075078Y-52781005D01*
X101927244Y-52860023D01*
X101927241Y-52860024D01*
X101927239Y-52860025D01*
X101766825Y-52908686D01*
X101766824Y-52908686D01*
X101766821Y-52908687D01*
X101641804Y-52921000D01*
X101558196Y-52921000D01*
X101433179Y-52908687D01*
X101433176Y-52908686D01*
X101433175Y-52908686D01*
X101272761Y-52860025D01*
X101272759Y-52860024D01*
X101272756Y-52860023D01*
X101124922Y-52781005D01*
X100995341Y-52674659D01*
X100888995Y-52545078D01*
X100809977Y-52397244D01*
X100761313Y-52236821D01*
X100744883Y-52070000D01*
X100761313Y-51903179D01*
X100809977Y-51742756D01*
X100888995Y-51594922D01*
X100995341Y-51465341D01*
X101124922Y-51358995D01*
X101272756Y-51279977D01*
X101272759Y-51279976D01*
X101272761Y-51279975D01*
X101433175Y-51231314D01*
X101433176Y-51231314D01*
X101433179Y-51231313D01*
X101558196Y-51219000D01*
X101641804Y-51219000D01*
X101766821Y-51231313D01*
X101766821Y-51231313D01*
G37*
M02*
