M48
INCH,TZ
T1C0.0315
T2C0.0394
T3C0.0433
%
G90
G05
T1
X41250Y-29750
X40000Y-20500
X40000Y-24500
X40000Y-25750
X40000Y-29750
X54016Y-22000
X55000Y-22000
X41250Y-25750
T2
X53750Y-31000
X53750Y-32000
X53750Y-33000
X53750Y-34000
X54750Y-31000
X54750Y-32000
X54750Y-33000
X54750Y-34000
X40000Y-31250
X47000Y-35500
X48000Y-35500
X52000Y-30000
X52000Y-31000
X52000Y-32000
X52000Y-33000
X52000Y-34000
X52000Y-35000
X52031Y-26000
X54000Y-26000
X40000Y-35000
X41000Y-35000
X42000Y-35000
X40000Y-33250
X41000Y-33250
X42000Y-33250
X51000Y-21000
X52000Y-21000
T3
X43000Y-21000
X43000Y-22000
X43000Y-23000
X43000Y-24000
X43000Y-25000
X43000Y-26000
X43000Y-27000
X43000Y-28000
X43000Y-29000
X43000Y-30000
X43000Y-31000
X43000Y-32000
X49000Y-21000
X49000Y-22000
X49000Y-23000
X49000Y-24000
X49000Y-25000
X49000Y-26000
X49000Y-27000
X49000Y-28000
X49000Y-29000
X49000Y-30000
X49000Y-31000
X49000Y-32000
T0
M30
