G04 #@! TF.GenerationSoftware,KiCad,Pcbnew,5.0.1*
G04 #@! TF.CreationDate,2019-02-03T14:29:02+01:00*
G04 #@! TF.ProjectId,ardlantic,6172646C616E7469632E6B696361645F,rev?*
G04 #@! TF.SameCoordinates,Original*
G04 #@! TF.FileFunction,Legend,Top*
G04 #@! TF.FilePolarity,Positive*
%FSLAX46Y46*%
G04 Gerber Fmt 4.6, Leading zero omitted, Abs format (unit mm)*
G04 Created by KiCad (PCBNEW 5.0.1) date Sun 03 Feb 2019 02:29:02 PM CET*
%MOMM*%
%LPD*%
G01*
G04 APERTURE LIST*
%ADD10C,0.120000*%
%ADD11C,0.150000*%
G04 APERTURE END LIST*
D10*
G04 #@! TO.C,C1*
X139780000Y-66040000D02*
G75*
G03X139780000Y-66040000I-5120000J0D01*
G01*
X134660000Y-71120000D02*
X134660000Y-60960000D01*
X134620000Y-71120000D02*
X134620000Y-60960000D01*
X134580000Y-71120000D02*
X134580000Y-60960000D01*
X134540000Y-71119000D02*
X134540000Y-60961000D01*
X134500000Y-71118000D02*
X134500000Y-60962000D01*
X134460000Y-71117000D02*
X134460000Y-60963000D01*
X134420000Y-71115000D02*
X134420000Y-60965000D01*
X134380000Y-71113000D02*
X134380000Y-60967000D01*
X134340000Y-71110000D02*
X134340000Y-60970000D01*
X134300000Y-71108000D02*
X134300000Y-60972000D01*
X134260000Y-71105000D02*
X134260000Y-60975000D01*
X134220000Y-71102000D02*
X134220000Y-60978000D01*
X134180000Y-71098000D02*
X134180000Y-60982000D01*
X134140000Y-71094000D02*
X134140000Y-60986000D01*
X134100000Y-71090000D02*
X134100000Y-60990000D01*
X134060000Y-71085000D02*
X134060000Y-60995000D01*
X134020000Y-71080000D02*
X134020000Y-61000000D01*
X133980000Y-71075000D02*
X133980000Y-61005000D01*
X133939000Y-71070000D02*
X133939000Y-61010000D01*
X133899000Y-71064000D02*
X133899000Y-61016000D01*
X133859000Y-71058000D02*
X133859000Y-61022000D01*
X133819000Y-71051000D02*
X133819000Y-61029000D01*
X133779000Y-71044000D02*
X133779000Y-61036000D01*
X133739000Y-71037000D02*
X133739000Y-61043000D01*
X133699000Y-71030000D02*
X133699000Y-61050000D01*
X133659000Y-71022000D02*
X133659000Y-61058000D01*
X133619000Y-71014000D02*
X133619000Y-61066000D01*
X133579000Y-71005000D02*
X133579000Y-61075000D01*
X133539000Y-70996000D02*
X133539000Y-61084000D01*
X133499000Y-70987000D02*
X133499000Y-61093000D01*
X133459000Y-70978000D02*
X133459000Y-61102000D01*
X133419000Y-70968000D02*
X133419000Y-61112000D01*
X133379000Y-70958000D02*
X133379000Y-67281000D01*
X133379000Y-64799000D02*
X133379000Y-61122000D01*
X133339000Y-70947000D02*
X133339000Y-67281000D01*
X133339000Y-64799000D02*
X133339000Y-61133000D01*
X133299000Y-70937000D02*
X133299000Y-67281000D01*
X133299000Y-64799000D02*
X133299000Y-61143000D01*
X133259000Y-70925000D02*
X133259000Y-67281000D01*
X133259000Y-64799000D02*
X133259000Y-61155000D01*
X133219000Y-70914000D02*
X133219000Y-67281000D01*
X133219000Y-64799000D02*
X133219000Y-61166000D01*
X133179000Y-70902000D02*
X133179000Y-67281000D01*
X133179000Y-64799000D02*
X133179000Y-61178000D01*
X133139000Y-70890000D02*
X133139000Y-67281000D01*
X133139000Y-64799000D02*
X133139000Y-61190000D01*
X133099000Y-70877000D02*
X133099000Y-67281000D01*
X133099000Y-64799000D02*
X133099000Y-61203000D01*
X133059000Y-70864000D02*
X133059000Y-67281000D01*
X133059000Y-64799000D02*
X133059000Y-61216000D01*
X133019000Y-70851000D02*
X133019000Y-67281000D01*
X133019000Y-64799000D02*
X133019000Y-61229000D01*
X132979000Y-70837000D02*
X132979000Y-67281000D01*
X132979000Y-64799000D02*
X132979000Y-61243000D01*
X132939000Y-70823000D02*
X132939000Y-67281000D01*
X132939000Y-64799000D02*
X132939000Y-61257000D01*
X132899000Y-70808000D02*
X132899000Y-67281000D01*
X132899000Y-64799000D02*
X132899000Y-61272000D01*
X132859000Y-70794000D02*
X132859000Y-67281000D01*
X132859000Y-64799000D02*
X132859000Y-61286000D01*
X132819000Y-70778000D02*
X132819000Y-67281000D01*
X132819000Y-64799000D02*
X132819000Y-61302000D01*
X132779000Y-70763000D02*
X132779000Y-67281000D01*
X132779000Y-64799000D02*
X132779000Y-61317000D01*
X132739000Y-70747000D02*
X132739000Y-67281000D01*
X132739000Y-64799000D02*
X132739000Y-61333000D01*
X132699000Y-70730000D02*
X132699000Y-67281000D01*
X132699000Y-64799000D02*
X132699000Y-61350000D01*
X132659000Y-70714000D02*
X132659000Y-67281000D01*
X132659000Y-64799000D02*
X132659000Y-61366000D01*
X132619000Y-70697000D02*
X132619000Y-67281000D01*
X132619000Y-64799000D02*
X132619000Y-61383000D01*
X132579000Y-70679000D02*
X132579000Y-67281000D01*
X132579000Y-64799000D02*
X132579000Y-61401000D01*
X132539000Y-70661000D02*
X132539000Y-67281000D01*
X132539000Y-64799000D02*
X132539000Y-61419000D01*
X132499000Y-70643000D02*
X132499000Y-67281000D01*
X132499000Y-64799000D02*
X132499000Y-61437000D01*
X132459000Y-70624000D02*
X132459000Y-67281000D01*
X132459000Y-64799000D02*
X132459000Y-61456000D01*
X132419000Y-70604000D02*
X132419000Y-67281000D01*
X132419000Y-64799000D02*
X132419000Y-61476000D01*
X132379000Y-70585000D02*
X132379000Y-67281000D01*
X132379000Y-64799000D02*
X132379000Y-61495000D01*
X132339000Y-70565000D02*
X132339000Y-67281000D01*
X132339000Y-64799000D02*
X132339000Y-61515000D01*
X132299000Y-70544000D02*
X132299000Y-67281000D01*
X132299000Y-64799000D02*
X132299000Y-61536000D01*
X132259000Y-70523000D02*
X132259000Y-67281000D01*
X132259000Y-64799000D02*
X132259000Y-61557000D01*
X132219000Y-70502000D02*
X132219000Y-67281000D01*
X132219000Y-64799000D02*
X132219000Y-61578000D01*
X132179000Y-70480000D02*
X132179000Y-67281000D01*
X132179000Y-64799000D02*
X132179000Y-61600000D01*
X132139000Y-70457000D02*
X132139000Y-67281000D01*
X132139000Y-64799000D02*
X132139000Y-61623000D01*
X132099000Y-70435000D02*
X132099000Y-67281000D01*
X132099000Y-64799000D02*
X132099000Y-61645000D01*
X132059000Y-70411000D02*
X132059000Y-67281000D01*
X132059000Y-64799000D02*
X132059000Y-61669000D01*
X132019000Y-70387000D02*
X132019000Y-67281000D01*
X132019000Y-64799000D02*
X132019000Y-61693000D01*
X131979000Y-70363000D02*
X131979000Y-67281000D01*
X131979000Y-64799000D02*
X131979000Y-61717000D01*
X131939000Y-70338000D02*
X131939000Y-67281000D01*
X131939000Y-64799000D02*
X131939000Y-61742000D01*
X131899000Y-70313000D02*
X131899000Y-67281000D01*
X131899000Y-64799000D02*
X131899000Y-61767000D01*
X131859000Y-70287000D02*
X131859000Y-67281000D01*
X131859000Y-64799000D02*
X131859000Y-61793000D01*
X131819000Y-70261000D02*
X131819000Y-67281000D01*
X131819000Y-64799000D02*
X131819000Y-61819000D01*
X131779000Y-70234000D02*
X131779000Y-67281000D01*
X131779000Y-64799000D02*
X131779000Y-61846000D01*
X131739000Y-70206000D02*
X131739000Y-67281000D01*
X131739000Y-64799000D02*
X131739000Y-61874000D01*
X131699000Y-70178000D02*
X131699000Y-67281000D01*
X131699000Y-64799000D02*
X131699000Y-61902000D01*
X131659000Y-70150000D02*
X131659000Y-67281000D01*
X131659000Y-64799000D02*
X131659000Y-61930000D01*
X131619000Y-70120000D02*
X131619000Y-67281000D01*
X131619000Y-64799000D02*
X131619000Y-61960000D01*
X131579000Y-70090000D02*
X131579000Y-67281000D01*
X131579000Y-64799000D02*
X131579000Y-61990000D01*
X131539000Y-70060000D02*
X131539000Y-67281000D01*
X131539000Y-64799000D02*
X131539000Y-62020000D01*
X131499000Y-70029000D02*
X131499000Y-67281000D01*
X131499000Y-64799000D02*
X131499000Y-62051000D01*
X131459000Y-69997000D02*
X131459000Y-67281000D01*
X131459000Y-64799000D02*
X131459000Y-62083000D01*
X131419000Y-69965000D02*
X131419000Y-67281000D01*
X131419000Y-64799000D02*
X131419000Y-62115000D01*
X131379000Y-69932000D02*
X131379000Y-67281000D01*
X131379000Y-64799000D02*
X131379000Y-62148000D01*
X131339000Y-69898000D02*
X131339000Y-67281000D01*
X131339000Y-64799000D02*
X131339000Y-62182000D01*
X131299000Y-69864000D02*
X131299000Y-67281000D01*
X131299000Y-64799000D02*
X131299000Y-62216000D01*
X131259000Y-69829000D02*
X131259000Y-67281000D01*
X131259000Y-64799000D02*
X131259000Y-62251000D01*
X131219000Y-69793000D02*
X131219000Y-67281000D01*
X131219000Y-64799000D02*
X131219000Y-62287000D01*
X131179000Y-69756000D02*
X131179000Y-67281000D01*
X131179000Y-64799000D02*
X131179000Y-62324000D01*
X131139000Y-69719000D02*
X131139000Y-67281000D01*
X131139000Y-64799000D02*
X131139000Y-62361000D01*
X131099000Y-69680000D02*
X131099000Y-67281000D01*
X131099000Y-64799000D02*
X131099000Y-62400000D01*
X131059000Y-69641000D02*
X131059000Y-67281000D01*
X131059000Y-64799000D02*
X131059000Y-62439000D01*
X131019000Y-69601000D02*
X131019000Y-67281000D01*
X131019000Y-64799000D02*
X131019000Y-62479000D01*
X130979000Y-69560000D02*
X130979000Y-67281000D01*
X130979000Y-64799000D02*
X130979000Y-62520000D01*
X130939000Y-69518000D02*
X130939000Y-67281000D01*
X130939000Y-64799000D02*
X130939000Y-62562000D01*
X130899000Y-69476000D02*
X130899000Y-62604000D01*
X130859000Y-69432000D02*
X130859000Y-62648000D01*
X130819000Y-69387000D02*
X130819000Y-62693000D01*
X130779000Y-69341000D02*
X130779000Y-62739000D01*
X130739000Y-69294000D02*
X130739000Y-62786000D01*
X130699000Y-69246000D02*
X130699000Y-62834000D01*
X130659000Y-69196000D02*
X130659000Y-62884000D01*
X130619000Y-69146000D02*
X130619000Y-62934000D01*
X130579000Y-69094000D02*
X130579000Y-62986000D01*
X130539000Y-69040000D02*
X130539000Y-63040000D01*
X130499000Y-68985000D02*
X130499000Y-63095000D01*
X130459000Y-68929000D02*
X130459000Y-63151000D01*
X130419000Y-68870000D02*
X130419000Y-63210000D01*
X130379000Y-68810000D02*
X130379000Y-63270000D01*
X130339000Y-68749000D02*
X130339000Y-63331000D01*
X130299000Y-68685000D02*
X130299000Y-63395000D01*
X130259000Y-68619000D02*
X130259000Y-63461000D01*
X130219000Y-68550000D02*
X130219000Y-63530000D01*
X130179000Y-68479000D02*
X130179000Y-63601000D01*
X130139000Y-68405000D02*
X130139000Y-63675000D01*
X130099000Y-68329000D02*
X130099000Y-63751000D01*
X130059000Y-68249000D02*
X130059000Y-63831000D01*
X130019000Y-68165000D02*
X130019000Y-63915000D01*
X129979000Y-68077000D02*
X129979000Y-64003000D01*
X129939000Y-67984000D02*
X129939000Y-64096000D01*
X129899000Y-67886000D02*
X129899000Y-64194000D01*
X129859000Y-67782000D02*
X129859000Y-64298000D01*
X129819000Y-67670000D02*
X129819000Y-64410000D01*
X129779000Y-67550000D02*
X129779000Y-64530000D01*
X129739000Y-67418000D02*
X129739000Y-64662000D01*
X129699000Y-67270000D02*
X129699000Y-64810000D01*
X129659000Y-67102000D02*
X129659000Y-64978000D01*
X129619000Y-66902000D02*
X129619000Y-65178000D01*
X129579000Y-66639000D02*
X129579000Y-65441000D01*
X140139646Y-68915000D02*
X139139646Y-68915000D01*
X139639646Y-69415000D02*
X139639646Y-68415000D01*
G04 #@! TO.C,J1 (DC)*
X128210000Y-54670000D02*
X128210000Y-53340000D01*
X129540000Y-54670000D02*
X128210000Y-54670000D01*
X130810000Y-54670000D02*
X130810000Y-52010000D01*
X130810000Y-52010000D02*
X133410000Y-52010000D01*
X130810000Y-54670000D02*
X133410000Y-54670000D01*
X133410000Y-54670000D02*
X133410000Y-52010000D01*
G04 #@! TO.C,J2*
X100270000Y-78045000D02*
X101600000Y-78045000D01*
X100270000Y-79375000D02*
X100270000Y-78045000D01*
X100270000Y-80645000D02*
X102930000Y-80645000D01*
X102930000Y-80645000D02*
X102930000Y-80705000D01*
X100270000Y-80645000D02*
X100270000Y-80705000D01*
X100270000Y-80705000D02*
X102930000Y-80705000D01*
G04 #@! TO.C,J3 (IR)*
X100270000Y-90230000D02*
X100270000Y-88900000D01*
X101600000Y-90230000D02*
X100270000Y-90230000D01*
X102870000Y-90230000D02*
X102870000Y-87570000D01*
X102870000Y-87570000D02*
X108010000Y-87570000D01*
X102870000Y-90230000D02*
X108010000Y-90230000D01*
X108010000Y-90230000D02*
X108010000Y-87570000D01*
G04 #@! TO.C,J6*
X139065000Y-77410000D02*
X140395000Y-77410000D01*
X140395000Y-77410000D02*
X140395000Y-78740000D01*
X137795000Y-77410000D02*
X137795000Y-80010000D01*
X137795000Y-80010000D02*
X140395000Y-80010000D01*
X140395000Y-80010000D02*
X140395000Y-87690000D01*
X135195000Y-87690000D02*
X140395000Y-87690000D01*
X135195000Y-77410000D02*
X135195000Y-87690000D01*
X135195000Y-77410000D02*
X137795000Y-77410000D01*
G04 #@! TO.C,R1*
X100230000Y-73755000D02*
X102970000Y-73755000D01*
X102970000Y-73755000D02*
X102970000Y-67215000D01*
X102970000Y-67215000D02*
X100230000Y-67215000D01*
X100230000Y-67215000D02*
X100230000Y-73755000D01*
X101600000Y-74525000D02*
X101600000Y-73755000D01*
X101600000Y-66445000D02*
X101600000Y-67215000D01*
G04 #@! TO.C,R2*
X101600000Y-53110000D02*
X101600000Y-53880000D01*
X101600000Y-61190000D02*
X101600000Y-60420000D01*
X100230000Y-53880000D02*
X100230000Y-60420000D01*
X102970000Y-53880000D02*
X100230000Y-53880000D01*
X102970000Y-60420000D02*
X102970000Y-53880000D01*
X100230000Y-60420000D02*
X102970000Y-60420000D01*
D11*
G04 #@! TO.C,U1*
X107950000Y-52070000D02*
X107950000Y-82550000D01*
X107950000Y-52070000D02*
X113030000Y-52070000D01*
X113030000Y-52070000D02*
X113030000Y-49530000D01*
X113030000Y-49530000D02*
X120650000Y-49530000D01*
X120650000Y-49530000D02*
X120650000Y-52070000D01*
X120650000Y-52070000D02*
X125730000Y-52070000D01*
X125730000Y-52070000D02*
X125730000Y-82550000D01*
X125730000Y-82550000D02*
X107950000Y-82550000D01*
D10*
G04 #@! TO.C,C2*
X141070000Y-55880000D02*
G75*
G03X141070000Y-55880000I-2620000J0D01*
G01*
X138450000Y-58460000D02*
X138450000Y-53300000D01*
X138410000Y-58460000D02*
X138410000Y-53300000D01*
X138370000Y-58459000D02*
X138370000Y-53301000D01*
X138330000Y-58458000D02*
X138330000Y-53302000D01*
X138290000Y-58456000D02*
X138290000Y-53304000D01*
X138250000Y-58453000D02*
X138250000Y-53307000D01*
X138210000Y-58449000D02*
X138210000Y-56920000D01*
X138210000Y-54840000D02*
X138210000Y-53311000D01*
X138170000Y-58445000D02*
X138170000Y-56920000D01*
X138170000Y-54840000D02*
X138170000Y-53315000D01*
X138130000Y-58441000D02*
X138130000Y-56920000D01*
X138130000Y-54840000D02*
X138130000Y-53319000D01*
X138090000Y-58436000D02*
X138090000Y-56920000D01*
X138090000Y-54840000D02*
X138090000Y-53324000D01*
X138050000Y-58430000D02*
X138050000Y-56920000D01*
X138050000Y-54840000D02*
X138050000Y-53330000D01*
X138010000Y-58423000D02*
X138010000Y-56920000D01*
X138010000Y-54840000D02*
X138010000Y-53337000D01*
X137970000Y-58416000D02*
X137970000Y-56920000D01*
X137970000Y-54840000D02*
X137970000Y-53344000D01*
X137930000Y-58408000D02*
X137930000Y-56920000D01*
X137930000Y-54840000D02*
X137930000Y-53352000D01*
X137890000Y-58400000D02*
X137890000Y-56920000D01*
X137890000Y-54840000D02*
X137890000Y-53360000D01*
X137850000Y-58391000D02*
X137850000Y-56920000D01*
X137850000Y-54840000D02*
X137850000Y-53369000D01*
X137810000Y-58381000D02*
X137810000Y-56920000D01*
X137810000Y-54840000D02*
X137810000Y-53379000D01*
X137770000Y-58371000D02*
X137770000Y-56920000D01*
X137770000Y-54840000D02*
X137770000Y-53389000D01*
X137729000Y-58360000D02*
X137729000Y-56920000D01*
X137729000Y-54840000D02*
X137729000Y-53400000D01*
X137689000Y-58348000D02*
X137689000Y-56920000D01*
X137689000Y-54840000D02*
X137689000Y-53412000D01*
X137649000Y-58335000D02*
X137649000Y-56920000D01*
X137649000Y-54840000D02*
X137649000Y-53425000D01*
X137609000Y-58322000D02*
X137609000Y-56920000D01*
X137609000Y-54840000D02*
X137609000Y-53438000D01*
X137569000Y-58308000D02*
X137569000Y-56920000D01*
X137569000Y-54840000D02*
X137569000Y-53452000D01*
X137529000Y-58294000D02*
X137529000Y-56920000D01*
X137529000Y-54840000D02*
X137529000Y-53466000D01*
X137489000Y-58278000D02*
X137489000Y-56920000D01*
X137489000Y-54840000D02*
X137489000Y-53482000D01*
X137449000Y-58262000D02*
X137449000Y-56920000D01*
X137449000Y-54840000D02*
X137449000Y-53498000D01*
X137409000Y-58245000D02*
X137409000Y-56920000D01*
X137409000Y-54840000D02*
X137409000Y-53515000D01*
X137369000Y-58228000D02*
X137369000Y-56920000D01*
X137369000Y-54840000D02*
X137369000Y-53532000D01*
X137329000Y-58209000D02*
X137329000Y-56920000D01*
X137329000Y-54840000D02*
X137329000Y-53551000D01*
X137289000Y-58190000D02*
X137289000Y-56920000D01*
X137289000Y-54840000D02*
X137289000Y-53570000D01*
X137249000Y-58170000D02*
X137249000Y-56920000D01*
X137249000Y-54840000D02*
X137249000Y-53590000D01*
X137209000Y-58148000D02*
X137209000Y-56920000D01*
X137209000Y-54840000D02*
X137209000Y-53612000D01*
X137169000Y-58127000D02*
X137169000Y-56920000D01*
X137169000Y-54840000D02*
X137169000Y-53633000D01*
X137129000Y-58104000D02*
X137129000Y-56920000D01*
X137129000Y-54840000D02*
X137129000Y-53656000D01*
X137089000Y-58080000D02*
X137089000Y-56920000D01*
X137089000Y-54840000D02*
X137089000Y-53680000D01*
X137049000Y-58055000D02*
X137049000Y-56920000D01*
X137049000Y-54840000D02*
X137049000Y-53705000D01*
X137009000Y-58029000D02*
X137009000Y-56920000D01*
X137009000Y-54840000D02*
X137009000Y-53731000D01*
X136969000Y-58002000D02*
X136969000Y-56920000D01*
X136969000Y-54840000D02*
X136969000Y-53758000D01*
X136929000Y-57975000D02*
X136929000Y-56920000D01*
X136929000Y-54840000D02*
X136929000Y-53785000D01*
X136889000Y-57945000D02*
X136889000Y-56920000D01*
X136889000Y-54840000D02*
X136889000Y-53815000D01*
X136849000Y-57915000D02*
X136849000Y-56920000D01*
X136849000Y-54840000D02*
X136849000Y-53845000D01*
X136809000Y-57884000D02*
X136809000Y-56920000D01*
X136809000Y-54840000D02*
X136809000Y-53876000D01*
X136769000Y-57851000D02*
X136769000Y-56920000D01*
X136769000Y-54840000D02*
X136769000Y-53909000D01*
X136729000Y-57817000D02*
X136729000Y-56920000D01*
X136729000Y-54840000D02*
X136729000Y-53943000D01*
X136689000Y-57781000D02*
X136689000Y-56920000D01*
X136689000Y-54840000D02*
X136689000Y-53979000D01*
X136649000Y-57744000D02*
X136649000Y-56920000D01*
X136649000Y-54840000D02*
X136649000Y-54016000D01*
X136609000Y-57706000D02*
X136609000Y-56920000D01*
X136609000Y-54840000D02*
X136609000Y-54054000D01*
X136569000Y-57665000D02*
X136569000Y-56920000D01*
X136569000Y-54840000D02*
X136569000Y-54095000D01*
X136529000Y-57623000D02*
X136529000Y-56920000D01*
X136529000Y-54840000D02*
X136529000Y-54137000D01*
X136489000Y-57579000D02*
X136489000Y-56920000D01*
X136489000Y-54840000D02*
X136489000Y-54181000D01*
X136449000Y-57533000D02*
X136449000Y-56920000D01*
X136449000Y-54840000D02*
X136449000Y-54227000D01*
X136409000Y-57485000D02*
X136409000Y-56920000D01*
X136409000Y-54840000D02*
X136409000Y-54275000D01*
X136369000Y-57434000D02*
X136369000Y-56920000D01*
X136369000Y-54840000D02*
X136369000Y-54326000D01*
X136329000Y-57380000D02*
X136329000Y-56920000D01*
X136329000Y-54840000D02*
X136329000Y-54380000D01*
X136289000Y-57323000D02*
X136289000Y-56920000D01*
X136289000Y-54840000D02*
X136289000Y-54437000D01*
X136249000Y-57263000D02*
X136249000Y-56920000D01*
X136249000Y-54840000D02*
X136249000Y-54497000D01*
X136209000Y-57199000D02*
X136209000Y-56920000D01*
X136209000Y-54840000D02*
X136209000Y-54561000D01*
X136169000Y-57131000D02*
X136169000Y-56920000D01*
X136169000Y-54840000D02*
X136169000Y-54629000D01*
X136129000Y-57058000D02*
X136129000Y-54702000D01*
X136089000Y-56978000D02*
X136089000Y-54782000D01*
X136049000Y-56891000D02*
X136049000Y-54869000D01*
X136009000Y-56795000D02*
X136009000Y-54965000D01*
X135969000Y-56685000D02*
X135969000Y-55075000D01*
X135929000Y-56557000D02*
X135929000Y-55203000D01*
X135889000Y-56398000D02*
X135889000Y-55362000D01*
X135849000Y-56164000D02*
X135849000Y-55596000D01*
X141254775Y-57355000D02*
X140754775Y-57355000D01*
X141004775Y-57605000D02*
X141004775Y-57105000D01*
G04 #@! TO.C,J7 (TEMP)*
X100270000Y-83125000D02*
X100270000Y-85785000D01*
X105410000Y-83125000D02*
X100270000Y-83125000D01*
X105410000Y-85785000D02*
X100270000Y-85785000D01*
X105410000Y-83125000D02*
X105410000Y-85785000D01*
X106680000Y-83125000D02*
X108010000Y-83125000D01*
X108010000Y-83125000D02*
X108010000Y-84455000D01*
G04 #@! TO.C,R3*
X103405000Y-73755000D02*
X106145000Y-73755000D01*
X106145000Y-73755000D02*
X106145000Y-67215000D01*
X106145000Y-67215000D02*
X103405000Y-67215000D01*
X103405000Y-67215000D02*
X103405000Y-73755000D01*
X104775000Y-74525000D02*
X104775000Y-73755000D01*
X104775000Y-66445000D02*
X104775000Y-67215000D01*
G04 #@! TO.C,C1*
D11*
X140803333Y-65762142D02*
X140755714Y-65809761D01*
X140612857Y-65857380D01*
X140517619Y-65857380D01*
X140374761Y-65809761D01*
X140279523Y-65714523D01*
X140231904Y-65619285D01*
X140184285Y-65428809D01*
X140184285Y-65285952D01*
X140231904Y-65095476D01*
X140279523Y-65000238D01*
X140374761Y-64905000D01*
X140517619Y-64857380D01*
X140612857Y-64857380D01*
X140755714Y-64905000D01*
X140803333Y-64952619D01*
X141755714Y-65857380D02*
X141184285Y-65857380D01*
X141470000Y-65857380D02*
X141470000Y-64857380D01*
X141374761Y-65000238D01*
X141279523Y-65095476D01*
X141184285Y-65143095D01*
G04 #@! TO.C,J1 (DC)*
X128429047Y-55332380D02*
X128429047Y-56046666D01*
X128381428Y-56189523D01*
X128286190Y-56284761D01*
X128143333Y-56332380D01*
X128048095Y-56332380D01*
X129429047Y-56332380D02*
X128857619Y-56332380D01*
X129143333Y-56332380D02*
X129143333Y-55332380D01*
X129048095Y-55475238D01*
X128952857Y-55570476D01*
X128857619Y-55618095D01*
X130905238Y-56713333D02*
X130857619Y-56665714D01*
X130762380Y-56522857D01*
X130714761Y-56427619D01*
X130667142Y-56284761D01*
X130619523Y-56046666D01*
X130619523Y-55856190D01*
X130667142Y-55618095D01*
X130714761Y-55475238D01*
X130762380Y-55380000D01*
X130857619Y-55237142D01*
X130905238Y-55189523D01*
X131286190Y-56332380D02*
X131286190Y-55332380D01*
X131524285Y-55332380D01*
X131667142Y-55380000D01*
X131762380Y-55475238D01*
X131810000Y-55570476D01*
X131857619Y-55760952D01*
X131857619Y-55903809D01*
X131810000Y-56094285D01*
X131762380Y-56189523D01*
X131667142Y-56284761D01*
X131524285Y-56332380D01*
X131286190Y-56332380D01*
X132857619Y-56237142D02*
X132810000Y-56284761D01*
X132667142Y-56332380D01*
X132571904Y-56332380D01*
X132429047Y-56284761D01*
X132333809Y-56189523D01*
X132286190Y-56094285D01*
X132238571Y-55903809D01*
X132238571Y-55760952D01*
X132286190Y-55570476D01*
X132333809Y-55475238D01*
X132429047Y-55380000D01*
X132571904Y-55332380D01*
X132667142Y-55332380D01*
X132810000Y-55380000D01*
X132857619Y-55427619D01*
X133190952Y-56713333D02*
X133238571Y-56665714D01*
X133333809Y-56522857D01*
X133381428Y-56427619D01*
X133429047Y-56284761D01*
X133476666Y-56046666D01*
X133476666Y-55856190D01*
X133429047Y-55618095D01*
X133381428Y-55475238D01*
X133333809Y-55380000D01*
X133238571Y-55237142D01*
X133190952Y-55189523D01*
G04 #@! TO.C,J2*
X101266666Y-76287380D02*
X101266666Y-77001666D01*
X101219047Y-77144523D01*
X101123809Y-77239761D01*
X100980952Y-77287380D01*
X100885714Y-77287380D01*
X101695238Y-76382619D02*
X101742857Y-76335000D01*
X101838095Y-76287380D01*
X102076190Y-76287380D01*
X102171428Y-76335000D01*
X102219047Y-76382619D01*
X102266666Y-76477857D01*
X102266666Y-76573095D01*
X102219047Y-76715952D01*
X101647619Y-77287380D01*
X102266666Y-77287380D01*
G04 #@! TO.C,J3 (IR)*
X109640952Y-88352380D02*
X109640952Y-89066666D01*
X109593333Y-89209523D01*
X109498095Y-89304761D01*
X109355238Y-89352380D01*
X109260000Y-89352380D01*
X110021904Y-88352380D02*
X110640952Y-88352380D01*
X110307619Y-88733333D01*
X110450476Y-88733333D01*
X110545714Y-88780952D01*
X110593333Y-88828571D01*
X110640952Y-88923809D01*
X110640952Y-89161904D01*
X110593333Y-89257142D01*
X110545714Y-89304761D01*
X110450476Y-89352380D01*
X110164761Y-89352380D01*
X110069523Y-89304761D01*
X110021904Y-89257142D01*
X112117142Y-89733333D02*
X112069523Y-89685714D01*
X111974285Y-89542857D01*
X111926666Y-89447619D01*
X111879047Y-89304761D01*
X111831428Y-89066666D01*
X111831428Y-88876190D01*
X111879047Y-88638095D01*
X111926666Y-88495238D01*
X111974285Y-88400000D01*
X112069523Y-88257142D01*
X112117142Y-88209523D01*
X112498095Y-89352380D02*
X112498095Y-88352380D01*
X113545714Y-89352380D02*
X113212380Y-88876190D01*
X112974285Y-89352380D02*
X112974285Y-88352380D01*
X113355238Y-88352380D01*
X113450476Y-88400000D01*
X113498095Y-88447619D01*
X113545714Y-88542857D01*
X113545714Y-88685714D01*
X113498095Y-88780952D01*
X113450476Y-88828571D01*
X113355238Y-88876190D01*
X112974285Y-88876190D01*
X113879047Y-89733333D02*
X113926666Y-89685714D01*
X114021904Y-89542857D01*
X114069523Y-89447619D01*
X114117142Y-89304761D01*
X114164761Y-89066666D01*
X114164761Y-88876190D01*
X114117142Y-88638095D01*
X114069523Y-88495238D01*
X114021904Y-88400000D01*
X113926666Y-88257142D01*
X113879047Y-88209523D01*
G04 #@! TO.C,J6*
X137461666Y-75422380D02*
X137461666Y-76136666D01*
X137414047Y-76279523D01*
X137318809Y-76374761D01*
X137175952Y-76422380D01*
X137080714Y-76422380D01*
X138366428Y-75422380D02*
X138175952Y-75422380D01*
X138080714Y-75470000D01*
X138033095Y-75517619D01*
X137937857Y-75660476D01*
X137890238Y-75850952D01*
X137890238Y-76231904D01*
X137937857Y-76327142D01*
X137985476Y-76374761D01*
X138080714Y-76422380D01*
X138271190Y-76422380D01*
X138366428Y-76374761D01*
X138414047Y-76327142D01*
X138461666Y-76231904D01*
X138461666Y-75993809D01*
X138414047Y-75898571D01*
X138366428Y-75850952D01*
X138271190Y-75803333D01*
X138080714Y-75803333D01*
X137985476Y-75850952D01*
X137937857Y-75898571D01*
X137890238Y-75993809D01*
G04 #@! TO.C,R1*
X101433333Y-70937380D02*
X101100000Y-70461190D01*
X100861904Y-70937380D02*
X100861904Y-69937380D01*
X101242857Y-69937380D01*
X101338095Y-69985000D01*
X101385714Y-70032619D01*
X101433333Y-70127857D01*
X101433333Y-70270714D01*
X101385714Y-70365952D01*
X101338095Y-70413571D01*
X101242857Y-70461190D01*
X100861904Y-70461190D01*
X102385714Y-70937380D02*
X101814285Y-70937380D01*
X102100000Y-70937380D02*
X102100000Y-69937380D01*
X102004761Y-70080238D01*
X101909523Y-70175476D01*
X101814285Y-70223095D01*
G04 #@! TO.C,R2*
X101433333Y-57602380D02*
X101100000Y-57126190D01*
X100861904Y-57602380D02*
X100861904Y-56602380D01*
X101242857Y-56602380D01*
X101338095Y-56650000D01*
X101385714Y-56697619D01*
X101433333Y-56792857D01*
X101433333Y-56935714D01*
X101385714Y-57030952D01*
X101338095Y-57078571D01*
X101242857Y-57126190D01*
X100861904Y-57126190D01*
X101814285Y-56697619D02*
X101861904Y-56650000D01*
X101957142Y-56602380D01*
X102195238Y-56602380D01*
X102290476Y-56650000D01*
X102338095Y-56697619D01*
X102385714Y-56792857D01*
X102385714Y-56888095D01*
X102338095Y-57030952D01*
X101766666Y-57602380D01*
X102385714Y-57602380D01*
G04 #@! TO.C,C2*
X138263333Y-52427142D02*
X138215714Y-52474761D01*
X138072857Y-52522380D01*
X137977619Y-52522380D01*
X137834761Y-52474761D01*
X137739523Y-52379523D01*
X137691904Y-52284285D01*
X137644285Y-52093809D01*
X137644285Y-51950952D01*
X137691904Y-51760476D01*
X137739523Y-51665238D01*
X137834761Y-51570000D01*
X137977619Y-51522380D01*
X138072857Y-51522380D01*
X138215714Y-51570000D01*
X138263333Y-51617619D01*
X138644285Y-51617619D02*
X138691904Y-51570000D01*
X138787142Y-51522380D01*
X139025238Y-51522380D01*
X139120476Y-51570000D01*
X139168095Y-51617619D01*
X139215714Y-51712857D01*
X139215714Y-51808095D01*
X139168095Y-51950952D01*
X138596666Y-52522380D01*
X139215714Y-52522380D01*
G04 #@! TO.C,J7 (TEMP)*
X110379285Y-83907380D02*
X110379285Y-84621666D01*
X110331666Y-84764523D01*
X110236428Y-84859761D01*
X110093571Y-84907380D01*
X109998333Y-84907380D01*
X110760238Y-83907380D02*
X111426904Y-83907380D01*
X110998333Y-84907380D01*
X112855476Y-85288333D02*
X112807857Y-85240714D01*
X112712619Y-85097857D01*
X112665000Y-85002619D01*
X112617380Y-84859761D01*
X112569761Y-84621666D01*
X112569761Y-84431190D01*
X112617380Y-84193095D01*
X112665000Y-84050238D01*
X112712619Y-83955000D01*
X112807857Y-83812142D01*
X112855476Y-83764523D01*
X113093571Y-83907380D02*
X113665000Y-83907380D01*
X113379285Y-84907380D02*
X113379285Y-83907380D01*
X113998333Y-84383571D02*
X114331666Y-84383571D01*
X114474523Y-84907380D02*
X113998333Y-84907380D01*
X113998333Y-83907380D01*
X114474523Y-83907380D01*
X114903095Y-84907380D02*
X114903095Y-83907380D01*
X115236428Y-84621666D01*
X115569761Y-83907380D01*
X115569761Y-84907380D01*
X116045952Y-84907380D02*
X116045952Y-83907380D01*
X116426904Y-83907380D01*
X116522142Y-83955000D01*
X116569761Y-84002619D01*
X116617380Y-84097857D01*
X116617380Y-84240714D01*
X116569761Y-84335952D01*
X116522142Y-84383571D01*
X116426904Y-84431190D01*
X116045952Y-84431190D01*
X116950714Y-85288333D02*
X116998333Y-85240714D01*
X117093571Y-85097857D01*
X117141190Y-85002619D01*
X117188809Y-84859761D01*
X117236428Y-84621666D01*
X117236428Y-84431190D01*
X117188809Y-84193095D01*
X117141190Y-84050238D01*
X117093571Y-83955000D01*
X116998333Y-83812142D01*
X116950714Y-83764523D01*
G04 #@! TO.C,R3*
X104608333Y-70937380D02*
X104275000Y-70461190D01*
X104036904Y-70937380D02*
X104036904Y-69937380D01*
X104417857Y-69937380D01*
X104513095Y-69985000D01*
X104560714Y-70032619D01*
X104608333Y-70127857D01*
X104608333Y-70270714D01*
X104560714Y-70365952D01*
X104513095Y-70413571D01*
X104417857Y-70461190D01*
X104036904Y-70461190D01*
X104941666Y-69937380D02*
X105560714Y-69937380D01*
X105227380Y-70318333D01*
X105370238Y-70318333D01*
X105465476Y-70365952D01*
X105513095Y-70413571D01*
X105560714Y-70508809D01*
X105560714Y-70746904D01*
X105513095Y-70842142D01*
X105465476Y-70889761D01*
X105370238Y-70937380D01*
X105084523Y-70937380D01*
X104989285Y-70889761D01*
X104941666Y-70842142D01*
G04 #@! TD*
M02*
