G04 #@! TF.GenerationSoftware,KiCad,Pcbnew,5.0.1*
G04 #@! TF.CreationDate,2019-02-03T14:29:02+01:00*
G04 #@! TF.ProjectId,ardlantic,6172646C616E7469632E6B696361645F,rev?*
G04 #@! TF.SameCoordinates,Original*
G04 #@! TF.FileFunction,Copper,L2,Bot,Signal*
G04 #@! TF.FilePolarity,Positive*
%FSLAX46Y46*%
G04 Gerber Fmt 4.6, Leading zero omitted, Abs format (unit mm)*
G04 Created by KiCad (PCBNEW 5.0.1) date Sun 03 Feb 2019 02:29:02 PM CET*
%MOMM*%
%LPD*%
G01*
G04 APERTURE LIST*
G04 #@! TA.AperFunction,ComponentPad*
%ADD10R,2.000000X2.000000*%
G04 #@! TD*
G04 #@! TA.AperFunction,ComponentPad*
%ADD11C,2.000000*%
G04 #@! TD*
G04 #@! TA.AperFunction,ComponentPad*
%ADD12O,1.700000X1.700000*%
G04 #@! TD*
G04 #@! TA.AperFunction,ComponentPad*
%ADD13R,1.700000X1.700000*%
G04 #@! TD*
G04 #@! TA.AperFunction,ComponentPad*
%ADD14C,1.600000*%
G04 #@! TD*
G04 #@! TA.AperFunction,ComponentPad*
%ADD15O,1.600000X1.600000*%
G04 #@! TD*
G04 #@! TA.AperFunction,ComponentPad*
%ADD16R,1.600000X1.600000*%
G04 #@! TD*
G04 #@! TA.AperFunction,Conductor*
%ADD17C,0.250000*%
G04 #@! TD*
G04 #@! TA.AperFunction,Conductor*
%ADD18C,0.254000*%
G04 #@! TD*
G04 APERTURE END LIST*
D10*
G04 #@! TO.P,C1,1*
G04 #@! TO.N,Net-(C1-Pad1)*
X137160000Y-66040000D03*
D11*
G04 #@! TO.P,C1,2*
G04 #@! TO.N,/GND_NRF*
X132160000Y-66040000D03*
G04 #@! TD*
D12*
G04 #@! TO.P,J1 (DC),2*
G04 #@! TO.N,GND*
X132080000Y-53340000D03*
D13*
G04 #@! TO.P,J1 (DC),1*
G04 #@! TO.N,/VDC*
X129540000Y-53340000D03*
G04 #@! TD*
G04 #@! TO.P,J2,1*
G04 #@! TO.N,Net-(J2-Pad1)*
X101600000Y-79375000D03*
G04 #@! TD*
D12*
G04 #@! TO.P,J3 (IR),3*
G04 #@! TO.N,/DAT*
X106680000Y-88900000D03*
G04 #@! TO.P,J3 (IR),2*
G04 #@! TO.N,/VCC*
X104140000Y-88900000D03*
D13*
G04 #@! TO.P,J3 (IR),1*
G04 #@! TO.N,GND*
X101600000Y-88900000D03*
G04 #@! TD*
D12*
G04 #@! TO.P,J4,6*
G04 #@! TO.N,Net-(J4-Pad6)*
X132080000Y-88900000D03*
G04 #@! TO.P,J4,5*
G04 #@! TO.N,/M1*
X132080000Y-86360000D03*
G04 #@! TO.P,J4,4*
G04 #@! TO.N,/M0*
X132080000Y-83820000D03*
G04 #@! TO.P,J4,3*
G04 #@! TO.N,/SCK*
X132080000Y-81280000D03*
G04 #@! TO.P,J4,2*
G04 #@! TO.N,/CS*
X132080000Y-78740000D03*
D13*
G04 #@! TO.P,J4,1*
G04 #@! TO.N,/CE*
X132080000Y-76200000D03*
G04 #@! TD*
D12*
G04 #@! TO.P,J6,8*
G04 #@! TO.N,/M1_NRF*
X136525000Y-86360000D03*
G04 #@! TO.P,J6,7*
G04 #@! TO.N,Net-(J6-Pad7)*
X139065000Y-86360000D03*
G04 #@! TO.P,J6,6*
G04 #@! TO.N,/SCK_NRF*
X136525000Y-83820000D03*
G04 #@! TO.P,J6,5*
G04 #@! TO.N,Net-(J6-Pad5)*
X139065000Y-83820000D03*
G04 #@! TO.P,J6,4*
G04 #@! TO.N,/CE_NRF*
X136525000Y-81280000D03*
G04 #@! TO.P,J6,3*
G04 #@! TO.N,Net-(J6-Pad3)*
X139065000Y-81280000D03*
G04 #@! TO.P,J6,2*
G04 #@! TO.N,/GND_NRF*
X136525000Y-78740000D03*
D13*
G04 #@! TO.P,J6,1*
G04 #@! TO.N,Net-(C1-Pad1)*
X139065000Y-78740000D03*
G04 #@! TD*
G04 #@! TO.P,J5,1*
G04 #@! TO.N,/VCC*
X119380000Y-90170000D03*
D12*
G04 #@! TO.P,J5,2*
G04 #@! TO.N,GND*
X121920000Y-90170000D03*
G04 #@! TD*
D14*
G04 #@! TO.P,R1,1*
G04 #@! TO.N,Net-(J2-Pad1)*
X101600000Y-75565000D03*
D15*
G04 #@! TO.P,R1,2*
G04 #@! TO.N,Net-(R1-Pad2)*
X101600000Y-65405000D03*
G04 #@! TD*
G04 #@! TO.P,R2,2*
G04 #@! TO.N,GND*
X101600000Y-52070000D03*
D14*
G04 #@! TO.P,R2,1*
G04 #@! TO.N,Net-(R1-Pad2)*
X101600000Y-62230000D03*
G04 #@! TD*
D16*
G04 #@! TO.P,U1,1*
G04 #@! TO.N,Net-(U1-Pad1)*
X109220000Y-53340000D03*
D14*
G04 #@! TO.P,U1,2*
G04 #@! TO.N,Net-(U1-Pad2)*
X109220000Y-55880000D03*
G04 #@! TO.P,U1,3*
G04 #@! TO.N,/TDATA*
X109220000Y-58420000D03*
G04 #@! TO.P,U1,4*
G04 #@! TO.N,Net-(U1-Pad4)*
X109220000Y-60960000D03*
G04 #@! TO.P,U1,5*
G04 #@! TO.N,/CE*
X109220000Y-63500000D03*
G04 #@! TO.P,U1,6*
G04 #@! TO.N,/CS*
X109220000Y-66040000D03*
G04 #@! TO.P,U1,7*
G04 #@! TO.N,Net-(U1-Pad7)*
X109220000Y-68580000D03*
G04 #@! TO.P,U1,8*
G04 #@! TO.N,Net-(U1-Pad8)*
X109220000Y-71120000D03*
G04 #@! TO.P,U1,9*
G04 #@! TO.N,Net-(U1-Pad9)*
X109220000Y-73660000D03*
G04 #@! TO.P,U1,10*
G04 #@! TO.N,Net-(U1-Pad10)*
X109220000Y-76200000D03*
G04 #@! TO.P,U1,11*
G04 #@! TO.N,Net-(U1-Pad11)*
X109220000Y-78740000D03*
G04 #@! TO.P,U1,12*
G04 #@! TO.N,/DAT*
X109220000Y-81280000D03*
G04 #@! TO.P,U1,13*
G04 #@! TO.N,Net-(U1-Pad13)*
X124460000Y-81280000D03*
G04 #@! TO.P,U1,14*
G04 #@! TO.N,/M0*
X124460000Y-78740000D03*
G04 #@! TO.P,U1,15*
G04 #@! TO.N,/M1*
X124460000Y-76200000D03*
G04 #@! TO.P,U1,16*
G04 #@! TO.N,/SCK*
X124460000Y-73660000D03*
G04 #@! TO.P,U1,17*
G04 #@! TO.N,Net-(U1-Pad17)*
X124460000Y-71120000D03*
G04 #@! TO.P,U1,18*
G04 #@! TO.N,Net-(U1-Pad18)*
X124460000Y-68580000D03*
G04 #@! TO.P,U1,19*
G04 #@! TO.N,Net-(R1-Pad2)*
X124460000Y-66040000D03*
G04 #@! TO.P,U1,20*
G04 #@! TO.N,Net-(U1-Pad20)*
X124460000Y-63500000D03*
G04 #@! TO.P,U1,21*
G04 #@! TO.N,/VCC*
X124460000Y-60960000D03*
G04 #@! TO.P,U1,22*
G04 #@! TO.N,Net-(U1-Pad22)*
X124460000Y-58420000D03*
G04 #@! TO.P,U1,23*
G04 #@! TO.N,Net-(U1-Pad23)*
X124460000Y-55880000D03*
G04 #@! TO.P,U1,24*
G04 #@! TO.N,/VDC*
X124460000Y-53340000D03*
G04 #@! TD*
D16*
G04 #@! TO.P,C2,1*
G04 #@! TO.N,Net-(C1-Pad1)*
X139700000Y-55880000D03*
D14*
G04 #@! TO.P,C2,2*
G04 #@! TO.N,/GND_NRF*
X137200000Y-55880000D03*
G04 #@! TD*
D13*
G04 #@! TO.P,J7 (TEMP),1*
G04 #@! TO.N,/VCC*
X106680000Y-84455000D03*
D12*
G04 #@! TO.P,J7 (TEMP),2*
G04 #@! TO.N,/TDATA*
X104140000Y-84455000D03*
G04 #@! TO.P,J7 (TEMP),3*
G04 #@! TO.N,GND*
X101600000Y-84455000D03*
G04 #@! TD*
D14*
G04 #@! TO.P,R3,1*
G04 #@! TO.N,/TDATA*
X104775000Y-75565000D03*
D15*
G04 #@! TO.P,R3,2*
G04 #@! TO.N,/VCC*
X104775000Y-65405000D03*
G04 #@! TD*
D17*
G04 #@! TO.N,/SCK*
X131230001Y-80430001D02*
X129960001Y-80430001D01*
X132080000Y-81280000D02*
X131230001Y-80430001D01*
X129960001Y-80430001D02*
X128905000Y-79375000D01*
X128905000Y-79375000D02*
X128905000Y-75565000D01*
X127000000Y-73660000D02*
X124460000Y-73660000D01*
X128905000Y-75565000D02*
X127000000Y-73660000D01*
G04 #@! TO.N,/M0*
X132080000Y-83820000D02*
X130175000Y-83820000D01*
X130175000Y-83820000D02*
X127635000Y-81280000D01*
X127635000Y-81280000D02*
X127635000Y-80010000D01*
X127635000Y-80010000D02*
X126365000Y-78740000D01*
X126365000Y-78740000D02*
X124460000Y-78740000D01*
G04 #@! TO.N,/M1*
X123190000Y-76200000D02*
X124460000Y-76200000D01*
X121285000Y-78105000D02*
X123190000Y-76200000D01*
X121285000Y-83185000D02*
X121285000Y-78105000D01*
X132080000Y-86360000D02*
X124460000Y-86360000D01*
X124460000Y-86360000D02*
X121285000Y-83185000D01*
G04 #@! TD*
D18*
G04 #@! TO.N,GND*
G36*
X100447611Y-51214866D02*
X100208086Y-51720959D01*
X100329371Y-51943000D01*
X101473000Y-51943000D01*
X101473000Y-51923000D01*
X101727000Y-51923000D01*
X101727000Y-51943000D01*
X102870629Y-51943000D01*
X102991914Y-51720959D01*
X102752389Y-51214866D01*
X102434612Y-50927000D01*
X140917394Y-50927000D01*
X142113000Y-52122606D01*
X142113000Y-90117394D01*
X140917394Y-91313000D01*
X122828085Y-91313000D01*
X123115183Y-91051358D01*
X123361486Y-90526892D01*
X123240819Y-90297000D01*
X122047000Y-90297000D01*
X122047000Y-90317000D01*
X121793000Y-90317000D01*
X121793000Y-90297000D01*
X121773000Y-90297000D01*
X121773000Y-90043000D01*
X121793000Y-90043000D01*
X121793000Y-88849845D01*
X122047000Y-88849845D01*
X122047000Y-90043000D01*
X123240819Y-90043000D01*
X123361486Y-89813108D01*
X123115183Y-89288642D01*
X122686924Y-88898355D01*
X122276890Y-88728524D01*
X122047000Y-88849845D01*
X121793000Y-88849845D01*
X121563110Y-88728524D01*
X121153076Y-88898355D01*
X120848739Y-89175708D01*
X120828157Y-89072235D01*
X120687809Y-88862191D01*
X120477765Y-88721843D01*
X120230000Y-88672560D01*
X118530000Y-88672560D01*
X118282235Y-88721843D01*
X118072191Y-88862191D01*
X117931843Y-89072235D01*
X117882560Y-89320000D01*
X117882560Y-91020000D01*
X117931843Y-91267765D01*
X117962068Y-91313000D01*
X100382606Y-91313000D01*
X99187000Y-90117394D01*
X99187000Y-89185750D01*
X100115000Y-89185750D01*
X100115000Y-89876309D01*
X100211673Y-90109698D01*
X100390301Y-90288327D01*
X100623690Y-90385000D01*
X101314250Y-90385000D01*
X101473000Y-90226250D01*
X101473000Y-89027000D01*
X100273750Y-89027000D01*
X100115000Y-89185750D01*
X99187000Y-89185750D01*
X99187000Y-87923691D01*
X100115000Y-87923691D01*
X100115000Y-88614250D01*
X100273750Y-88773000D01*
X101473000Y-88773000D01*
X101473000Y-87573750D01*
X101727000Y-87573750D01*
X101727000Y-88773000D01*
X101747000Y-88773000D01*
X101747000Y-89027000D01*
X101727000Y-89027000D01*
X101727000Y-90226250D01*
X101885750Y-90385000D01*
X102576310Y-90385000D01*
X102809699Y-90288327D01*
X102988327Y-90109698D01*
X103054904Y-89948967D01*
X103069375Y-89970625D01*
X103560582Y-90298839D01*
X103993744Y-90385000D01*
X104286256Y-90385000D01*
X104719418Y-90298839D01*
X105210625Y-89970625D01*
X105410000Y-89672239D01*
X105609375Y-89970625D01*
X106100582Y-90298839D01*
X106533744Y-90385000D01*
X106826256Y-90385000D01*
X107259418Y-90298839D01*
X107750625Y-89970625D01*
X108078839Y-89479418D01*
X108194092Y-88900000D01*
X108078839Y-88320582D01*
X107750625Y-87829375D01*
X107259418Y-87501161D01*
X106826256Y-87415000D01*
X106533744Y-87415000D01*
X106100582Y-87501161D01*
X105609375Y-87829375D01*
X105410000Y-88127761D01*
X105210625Y-87829375D01*
X104719418Y-87501161D01*
X104286256Y-87415000D01*
X103993744Y-87415000D01*
X103560582Y-87501161D01*
X103069375Y-87829375D01*
X103054904Y-87851033D01*
X102988327Y-87690302D01*
X102809699Y-87511673D01*
X102576310Y-87415000D01*
X101885750Y-87415000D01*
X101727000Y-87573750D01*
X101473000Y-87573750D01*
X101314250Y-87415000D01*
X100623690Y-87415000D01*
X100390301Y-87511673D01*
X100211673Y-87690302D01*
X100115000Y-87923691D01*
X99187000Y-87923691D01*
X99187000Y-84811892D01*
X100158514Y-84811892D01*
X100404817Y-85336358D01*
X100833076Y-85726645D01*
X101243110Y-85896476D01*
X101473000Y-85775155D01*
X101473000Y-84582000D01*
X100279181Y-84582000D01*
X100158514Y-84811892D01*
X99187000Y-84811892D01*
X99187000Y-84098108D01*
X100158514Y-84098108D01*
X100279181Y-84328000D01*
X101473000Y-84328000D01*
X101473000Y-83134845D01*
X101727000Y-83134845D01*
X101727000Y-84328000D01*
X101747000Y-84328000D01*
X101747000Y-84582000D01*
X101727000Y-84582000D01*
X101727000Y-85775155D01*
X101956890Y-85896476D01*
X102366924Y-85726645D01*
X102795183Y-85336358D01*
X102856157Y-85206522D01*
X103069375Y-85525625D01*
X103560582Y-85853839D01*
X103993744Y-85940000D01*
X104286256Y-85940000D01*
X104719418Y-85853839D01*
X105210625Y-85525625D01*
X105222816Y-85507381D01*
X105231843Y-85552765D01*
X105372191Y-85762809D01*
X105582235Y-85903157D01*
X105830000Y-85952440D01*
X107530000Y-85952440D01*
X107777765Y-85903157D01*
X107987809Y-85762809D01*
X108128157Y-85552765D01*
X108177440Y-85305000D01*
X108177440Y-83605000D01*
X108128157Y-83357235D01*
X107987809Y-83147191D01*
X107777765Y-83006843D01*
X107530000Y-82957560D01*
X105830000Y-82957560D01*
X105582235Y-83006843D01*
X105372191Y-83147191D01*
X105231843Y-83357235D01*
X105222816Y-83402619D01*
X105210625Y-83384375D01*
X104719418Y-83056161D01*
X104286256Y-82970000D01*
X103993744Y-82970000D01*
X103560582Y-83056161D01*
X103069375Y-83384375D01*
X102856157Y-83703478D01*
X102795183Y-83573642D01*
X102366924Y-83183355D01*
X101956890Y-83013524D01*
X101727000Y-83134845D01*
X101473000Y-83134845D01*
X101243110Y-83013524D01*
X100833076Y-83183355D01*
X100404817Y-83573642D01*
X100158514Y-84098108D01*
X99187000Y-84098108D01*
X99187000Y-78525000D01*
X100102560Y-78525000D01*
X100102560Y-80225000D01*
X100151843Y-80472765D01*
X100292191Y-80682809D01*
X100502235Y-80823157D01*
X100750000Y-80872440D01*
X102450000Y-80872440D01*
X102697765Y-80823157D01*
X102907809Y-80682809D01*
X103048157Y-80472765D01*
X103097440Y-80225000D01*
X103097440Y-78525000D01*
X103048157Y-78277235D01*
X102907809Y-78067191D01*
X102697765Y-77926843D01*
X102450000Y-77877560D01*
X100750000Y-77877560D01*
X100502235Y-77926843D01*
X100292191Y-78067191D01*
X100151843Y-78277235D01*
X100102560Y-78525000D01*
X99187000Y-78525000D01*
X99187000Y-75279561D01*
X100165000Y-75279561D01*
X100165000Y-75850439D01*
X100383466Y-76377862D01*
X100787138Y-76781534D01*
X101314561Y-77000000D01*
X101885439Y-77000000D01*
X102412862Y-76781534D01*
X102816534Y-76377862D01*
X103035000Y-75850439D01*
X103035000Y-75279561D01*
X103340000Y-75279561D01*
X103340000Y-75850439D01*
X103558466Y-76377862D01*
X103962138Y-76781534D01*
X104489561Y-77000000D01*
X105060439Y-77000000D01*
X105587862Y-76781534D01*
X105991534Y-76377862D01*
X106210000Y-75850439D01*
X106210000Y-75279561D01*
X105991534Y-74752138D01*
X105587862Y-74348466D01*
X105060439Y-74130000D01*
X104489561Y-74130000D01*
X103962138Y-74348466D01*
X103558466Y-74752138D01*
X103340000Y-75279561D01*
X103035000Y-75279561D01*
X102816534Y-74752138D01*
X102412862Y-74348466D01*
X101885439Y-74130000D01*
X101314561Y-74130000D01*
X100787138Y-74348466D01*
X100383466Y-74752138D01*
X100165000Y-75279561D01*
X99187000Y-75279561D01*
X99187000Y-65405000D01*
X100136887Y-65405000D01*
X100248260Y-65964909D01*
X100565423Y-66439577D01*
X101040091Y-66756740D01*
X101458667Y-66840000D01*
X101741333Y-66840000D01*
X102159909Y-66756740D01*
X102634577Y-66439577D01*
X102951740Y-65964909D01*
X103063113Y-65405000D01*
X103311887Y-65405000D01*
X103423260Y-65964909D01*
X103740423Y-66439577D01*
X104215091Y-66756740D01*
X104633667Y-66840000D01*
X104916333Y-66840000D01*
X105334909Y-66756740D01*
X105809577Y-66439577D01*
X106126740Y-65964909D01*
X106238113Y-65405000D01*
X106126740Y-64845091D01*
X105809577Y-64370423D01*
X105334909Y-64053260D01*
X104916333Y-63970000D01*
X104633667Y-63970000D01*
X104215091Y-64053260D01*
X103740423Y-64370423D01*
X103423260Y-64845091D01*
X103311887Y-65405000D01*
X103063113Y-65405000D01*
X102951740Y-64845091D01*
X102634577Y-64370423D01*
X102159909Y-64053260D01*
X101741333Y-63970000D01*
X101458667Y-63970000D01*
X101040091Y-64053260D01*
X100565423Y-64370423D01*
X100248260Y-64845091D01*
X100136887Y-65405000D01*
X99187000Y-65405000D01*
X99187000Y-61944561D01*
X100165000Y-61944561D01*
X100165000Y-62515439D01*
X100383466Y-63042862D01*
X100787138Y-63446534D01*
X101314561Y-63665000D01*
X101885439Y-63665000D01*
X102412862Y-63446534D01*
X102816534Y-63042862D01*
X103035000Y-62515439D01*
X103035000Y-61944561D01*
X102816534Y-61417138D01*
X102412862Y-61013466D01*
X101885439Y-60795000D01*
X101314561Y-60795000D01*
X100787138Y-61013466D01*
X100383466Y-61417138D01*
X100165000Y-61944561D01*
X99187000Y-61944561D01*
X99187000Y-52419041D01*
X100208086Y-52419041D01*
X100447611Y-52925134D01*
X100862577Y-53301041D01*
X101250961Y-53461904D01*
X101473000Y-53339915D01*
X101473000Y-52197000D01*
X101727000Y-52197000D01*
X101727000Y-53339915D01*
X101949039Y-53461904D01*
X102337423Y-53301041D01*
X102752389Y-52925134D01*
X102934666Y-52540000D01*
X107772560Y-52540000D01*
X107772560Y-54140000D01*
X107821843Y-54387765D01*
X107962191Y-54597809D01*
X108172235Y-54738157D01*
X108305866Y-54764738D01*
X108003466Y-55067138D01*
X107785000Y-55594561D01*
X107785000Y-56165439D01*
X108003466Y-56692862D01*
X108407138Y-57096534D01*
X108536216Y-57150000D01*
X108407138Y-57203466D01*
X108003466Y-57607138D01*
X107785000Y-58134561D01*
X107785000Y-58705439D01*
X108003466Y-59232862D01*
X108407138Y-59636534D01*
X108536216Y-59690000D01*
X108407138Y-59743466D01*
X108003466Y-60147138D01*
X107785000Y-60674561D01*
X107785000Y-61245439D01*
X108003466Y-61772862D01*
X108407138Y-62176534D01*
X108536216Y-62230000D01*
X108407138Y-62283466D01*
X108003466Y-62687138D01*
X107785000Y-63214561D01*
X107785000Y-63785439D01*
X108003466Y-64312862D01*
X108407138Y-64716534D01*
X108536216Y-64770000D01*
X108407138Y-64823466D01*
X108003466Y-65227138D01*
X107785000Y-65754561D01*
X107785000Y-66325439D01*
X108003466Y-66852862D01*
X108407138Y-67256534D01*
X108536216Y-67310000D01*
X108407138Y-67363466D01*
X108003466Y-67767138D01*
X107785000Y-68294561D01*
X107785000Y-68865439D01*
X108003466Y-69392862D01*
X108407138Y-69796534D01*
X108536216Y-69850000D01*
X108407138Y-69903466D01*
X108003466Y-70307138D01*
X107785000Y-70834561D01*
X107785000Y-71405439D01*
X108003466Y-71932862D01*
X108407138Y-72336534D01*
X108536216Y-72390000D01*
X108407138Y-72443466D01*
X108003466Y-72847138D01*
X107785000Y-73374561D01*
X107785000Y-73945439D01*
X108003466Y-74472862D01*
X108407138Y-74876534D01*
X108536216Y-74930000D01*
X108407138Y-74983466D01*
X108003466Y-75387138D01*
X107785000Y-75914561D01*
X107785000Y-76485439D01*
X108003466Y-77012862D01*
X108407138Y-77416534D01*
X108536216Y-77470000D01*
X108407138Y-77523466D01*
X108003466Y-77927138D01*
X107785000Y-78454561D01*
X107785000Y-79025439D01*
X108003466Y-79552862D01*
X108407138Y-79956534D01*
X108536216Y-80010000D01*
X108407138Y-80063466D01*
X108003466Y-80467138D01*
X107785000Y-80994561D01*
X107785000Y-81565439D01*
X108003466Y-82092862D01*
X108407138Y-82496534D01*
X108934561Y-82715000D01*
X109505439Y-82715000D01*
X110032862Y-82496534D01*
X110436534Y-82092862D01*
X110655000Y-81565439D01*
X110655000Y-80994561D01*
X110436534Y-80467138D01*
X110032862Y-80063466D01*
X109903784Y-80010000D01*
X110032862Y-79956534D01*
X110436534Y-79552862D01*
X110655000Y-79025439D01*
X110655000Y-78454561D01*
X110510207Y-78105000D01*
X120510112Y-78105000D01*
X120525001Y-78179852D01*
X120525000Y-83110153D01*
X120510112Y-83185000D01*
X120525000Y-83259847D01*
X120525000Y-83259851D01*
X120569096Y-83481536D01*
X120737071Y-83732929D01*
X120800530Y-83775331D01*
X123869671Y-86844473D01*
X123912071Y-86907929D01*
X124163463Y-87075904D01*
X124385148Y-87120000D01*
X124385152Y-87120000D01*
X124459999Y-87134888D01*
X124534846Y-87120000D01*
X130801822Y-87120000D01*
X131009375Y-87430625D01*
X131307761Y-87630000D01*
X131009375Y-87829375D01*
X130681161Y-88320582D01*
X130565908Y-88900000D01*
X130681161Y-89479418D01*
X131009375Y-89970625D01*
X131500582Y-90298839D01*
X131933744Y-90385000D01*
X132226256Y-90385000D01*
X132659418Y-90298839D01*
X133150625Y-89970625D01*
X133478839Y-89479418D01*
X133594092Y-88900000D01*
X133478839Y-88320582D01*
X133150625Y-87829375D01*
X132852239Y-87630000D01*
X133150625Y-87430625D01*
X133478839Y-86939418D01*
X133594092Y-86360000D01*
X133478839Y-85780582D01*
X133150625Y-85289375D01*
X132852239Y-85090000D01*
X133150625Y-84890625D01*
X133478839Y-84399418D01*
X133594092Y-83820000D01*
X133478839Y-83240582D01*
X133150625Y-82749375D01*
X132852239Y-82550000D01*
X133150625Y-82350625D01*
X133478839Y-81859418D01*
X133594092Y-81280000D01*
X133478839Y-80700582D01*
X133150625Y-80209375D01*
X132852239Y-80010000D01*
X133150625Y-79810625D01*
X133478839Y-79319418D01*
X133594092Y-78740000D01*
X135010908Y-78740000D01*
X135126161Y-79319418D01*
X135454375Y-79810625D01*
X135752761Y-80010000D01*
X135454375Y-80209375D01*
X135126161Y-80700582D01*
X135010908Y-81280000D01*
X135126161Y-81859418D01*
X135454375Y-82350625D01*
X135752761Y-82550000D01*
X135454375Y-82749375D01*
X135126161Y-83240582D01*
X135010908Y-83820000D01*
X135126161Y-84399418D01*
X135454375Y-84890625D01*
X135752761Y-85090000D01*
X135454375Y-85289375D01*
X135126161Y-85780582D01*
X135010908Y-86360000D01*
X135126161Y-86939418D01*
X135454375Y-87430625D01*
X135945582Y-87758839D01*
X136378744Y-87845000D01*
X136671256Y-87845000D01*
X137104418Y-87758839D01*
X137595625Y-87430625D01*
X137795000Y-87132239D01*
X137994375Y-87430625D01*
X138485582Y-87758839D01*
X138918744Y-87845000D01*
X139211256Y-87845000D01*
X139644418Y-87758839D01*
X140135625Y-87430625D01*
X140463839Y-86939418D01*
X140579092Y-86360000D01*
X140463839Y-85780582D01*
X140135625Y-85289375D01*
X139837239Y-85090000D01*
X140135625Y-84890625D01*
X140463839Y-84399418D01*
X140579092Y-83820000D01*
X140463839Y-83240582D01*
X140135625Y-82749375D01*
X139837239Y-82550000D01*
X140135625Y-82350625D01*
X140463839Y-81859418D01*
X140579092Y-81280000D01*
X140463839Y-80700582D01*
X140135625Y-80209375D01*
X140117381Y-80197184D01*
X140162765Y-80188157D01*
X140372809Y-80047809D01*
X140513157Y-79837765D01*
X140562440Y-79590000D01*
X140562440Y-77890000D01*
X140513157Y-77642235D01*
X140372809Y-77432191D01*
X140162765Y-77291843D01*
X139915000Y-77242560D01*
X138215000Y-77242560D01*
X137967235Y-77291843D01*
X137757191Y-77432191D01*
X137616843Y-77642235D01*
X137607816Y-77687619D01*
X137595625Y-77669375D01*
X137104418Y-77341161D01*
X136671256Y-77255000D01*
X136378744Y-77255000D01*
X135945582Y-77341161D01*
X135454375Y-77669375D01*
X135126161Y-78160582D01*
X135010908Y-78740000D01*
X133594092Y-78740000D01*
X133478839Y-78160582D01*
X133150625Y-77669375D01*
X133132381Y-77657184D01*
X133177765Y-77648157D01*
X133387809Y-77507809D01*
X133528157Y-77297765D01*
X133577440Y-77050000D01*
X133577440Y-75350000D01*
X133528157Y-75102235D01*
X133387809Y-74892191D01*
X133177765Y-74751843D01*
X132930000Y-74702560D01*
X131230000Y-74702560D01*
X130982235Y-74751843D01*
X130772191Y-74892191D01*
X130631843Y-75102235D01*
X130582560Y-75350000D01*
X130582560Y-77050000D01*
X130631843Y-77297765D01*
X130772191Y-77507809D01*
X130982235Y-77648157D01*
X131027619Y-77657184D01*
X131009375Y-77669375D01*
X130681161Y-78160582D01*
X130565908Y-78740000D01*
X130681161Y-79319418D01*
X130915413Y-79670001D01*
X130274803Y-79670001D01*
X129665000Y-79060199D01*
X129665000Y-75639848D01*
X129679888Y-75565000D01*
X129665000Y-75490152D01*
X129665000Y-75490148D01*
X129620904Y-75268463D01*
X129620904Y-75268462D01*
X129495329Y-75080527D01*
X129452929Y-75017071D01*
X129389473Y-74974671D01*
X127590331Y-73175530D01*
X127547929Y-73112071D01*
X127296537Y-72944096D01*
X127074852Y-72900000D01*
X127074847Y-72900000D01*
X127000000Y-72885112D01*
X126925153Y-72900000D01*
X125698430Y-72900000D01*
X125676534Y-72847138D01*
X125272862Y-72443466D01*
X125143784Y-72390000D01*
X125272862Y-72336534D01*
X125676534Y-71932862D01*
X125895000Y-71405439D01*
X125895000Y-70834561D01*
X125676534Y-70307138D01*
X125272862Y-69903466D01*
X125143784Y-69850000D01*
X125272862Y-69796534D01*
X125676534Y-69392862D01*
X125895000Y-68865439D01*
X125895000Y-68294561D01*
X125676534Y-67767138D01*
X125272862Y-67363466D01*
X125143784Y-67310000D01*
X125272862Y-67256534D01*
X125676534Y-66852862D01*
X125895000Y-66325439D01*
X125895000Y-65754561D01*
X125878522Y-65714778D01*
X130525000Y-65714778D01*
X130525000Y-66365222D01*
X130773914Y-66966153D01*
X131233847Y-67426086D01*
X131834778Y-67675000D01*
X132485222Y-67675000D01*
X133086153Y-67426086D01*
X133546086Y-66966153D01*
X133795000Y-66365222D01*
X133795000Y-65714778D01*
X133546086Y-65113847D01*
X133472239Y-65040000D01*
X135512560Y-65040000D01*
X135512560Y-67040000D01*
X135561843Y-67287765D01*
X135702191Y-67497809D01*
X135912235Y-67638157D01*
X136160000Y-67687440D01*
X138160000Y-67687440D01*
X138407765Y-67638157D01*
X138617809Y-67497809D01*
X138758157Y-67287765D01*
X138807440Y-67040000D01*
X138807440Y-65040000D01*
X138758157Y-64792235D01*
X138617809Y-64582191D01*
X138407765Y-64441843D01*
X138160000Y-64392560D01*
X136160000Y-64392560D01*
X135912235Y-64441843D01*
X135702191Y-64582191D01*
X135561843Y-64792235D01*
X135512560Y-65040000D01*
X133472239Y-65040000D01*
X133086153Y-64653914D01*
X132485222Y-64405000D01*
X131834778Y-64405000D01*
X131233847Y-64653914D01*
X130773914Y-65113847D01*
X130525000Y-65714778D01*
X125878522Y-65714778D01*
X125676534Y-65227138D01*
X125272862Y-64823466D01*
X125143784Y-64770000D01*
X125272862Y-64716534D01*
X125676534Y-64312862D01*
X125895000Y-63785439D01*
X125895000Y-63214561D01*
X125676534Y-62687138D01*
X125272862Y-62283466D01*
X125143784Y-62230000D01*
X125272862Y-62176534D01*
X125676534Y-61772862D01*
X125895000Y-61245439D01*
X125895000Y-60674561D01*
X125676534Y-60147138D01*
X125272862Y-59743466D01*
X125143784Y-59690000D01*
X125272862Y-59636534D01*
X125676534Y-59232862D01*
X125895000Y-58705439D01*
X125895000Y-58134561D01*
X125676534Y-57607138D01*
X125272862Y-57203466D01*
X125143784Y-57150000D01*
X125272862Y-57096534D01*
X125676534Y-56692862D01*
X125895000Y-56165439D01*
X125895000Y-55594561D01*
X135765000Y-55594561D01*
X135765000Y-56165439D01*
X135983466Y-56692862D01*
X136387138Y-57096534D01*
X136914561Y-57315000D01*
X137485439Y-57315000D01*
X138012862Y-57096534D01*
X138281899Y-56827497D01*
X138301843Y-56927765D01*
X138442191Y-57137809D01*
X138652235Y-57278157D01*
X138900000Y-57327440D01*
X140500000Y-57327440D01*
X140747765Y-57278157D01*
X140957809Y-57137809D01*
X141098157Y-56927765D01*
X141147440Y-56680000D01*
X141147440Y-55080000D01*
X141098157Y-54832235D01*
X140957809Y-54622191D01*
X140747765Y-54481843D01*
X140500000Y-54432560D01*
X138900000Y-54432560D01*
X138652235Y-54481843D01*
X138442191Y-54622191D01*
X138301843Y-54832235D01*
X138281899Y-54932503D01*
X138012862Y-54663466D01*
X137485439Y-54445000D01*
X136914561Y-54445000D01*
X136387138Y-54663466D01*
X135983466Y-55067138D01*
X135765000Y-55594561D01*
X125895000Y-55594561D01*
X125676534Y-55067138D01*
X125272862Y-54663466D01*
X125143784Y-54610000D01*
X125272862Y-54556534D01*
X125676534Y-54152862D01*
X125895000Y-53625439D01*
X125895000Y-53054561D01*
X125676534Y-52527138D01*
X125639396Y-52490000D01*
X128042560Y-52490000D01*
X128042560Y-54190000D01*
X128091843Y-54437765D01*
X128232191Y-54647809D01*
X128442235Y-54788157D01*
X128690000Y-54837440D01*
X130390000Y-54837440D01*
X130637765Y-54788157D01*
X130847809Y-54647809D01*
X130988157Y-54437765D01*
X131008739Y-54334292D01*
X131313076Y-54611645D01*
X131723110Y-54781476D01*
X131953000Y-54660155D01*
X131953000Y-53467000D01*
X132207000Y-53467000D01*
X132207000Y-54660155D01*
X132436890Y-54781476D01*
X132846924Y-54611645D01*
X133275183Y-54221358D01*
X133521486Y-53696892D01*
X133400819Y-53467000D01*
X132207000Y-53467000D01*
X131953000Y-53467000D01*
X131933000Y-53467000D01*
X131933000Y-53213000D01*
X131953000Y-53213000D01*
X131953000Y-52019845D01*
X132207000Y-52019845D01*
X132207000Y-53213000D01*
X133400819Y-53213000D01*
X133521486Y-52983108D01*
X133275183Y-52458642D01*
X132846924Y-52068355D01*
X132436890Y-51898524D01*
X132207000Y-52019845D01*
X131953000Y-52019845D01*
X131723110Y-51898524D01*
X131313076Y-52068355D01*
X131008739Y-52345708D01*
X130988157Y-52242235D01*
X130847809Y-52032191D01*
X130637765Y-51891843D01*
X130390000Y-51842560D01*
X128690000Y-51842560D01*
X128442235Y-51891843D01*
X128232191Y-52032191D01*
X128091843Y-52242235D01*
X128042560Y-52490000D01*
X125639396Y-52490000D01*
X125272862Y-52123466D01*
X124745439Y-51905000D01*
X124174561Y-51905000D01*
X123647138Y-52123466D01*
X123243466Y-52527138D01*
X123025000Y-53054561D01*
X123025000Y-53625439D01*
X123243466Y-54152862D01*
X123647138Y-54556534D01*
X123776216Y-54610000D01*
X123647138Y-54663466D01*
X123243466Y-55067138D01*
X123025000Y-55594561D01*
X123025000Y-56165439D01*
X123243466Y-56692862D01*
X123647138Y-57096534D01*
X123776216Y-57150000D01*
X123647138Y-57203466D01*
X123243466Y-57607138D01*
X123025000Y-58134561D01*
X123025000Y-58705439D01*
X123243466Y-59232862D01*
X123647138Y-59636534D01*
X123776216Y-59690000D01*
X123647138Y-59743466D01*
X123243466Y-60147138D01*
X123025000Y-60674561D01*
X123025000Y-61245439D01*
X123243466Y-61772862D01*
X123647138Y-62176534D01*
X123776216Y-62230000D01*
X123647138Y-62283466D01*
X123243466Y-62687138D01*
X123025000Y-63214561D01*
X123025000Y-63785439D01*
X123243466Y-64312862D01*
X123647138Y-64716534D01*
X123776216Y-64770000D01*
X123647138Y-64823466D01*
X123243466Y-65227138D01*
X123025000Y-65754561D01*
X123025000Y-66325439D01*
X123243466Y-66852862D01*
X123647138Y-67256534D01*
X123776216Y-67310000D01*
X123647138Y-67363466D01*
X123243466Y-67767138D01*
X123025000Y-68294561D01*
X123025000Y-68865439D01*
X123243466Y-69392862D01*
X123647138Y-69796534D01*
X123776216Y-69850000D01*
X123647138Y-69903466D01*
X123243466Y-70307138D01*
X123025000Y-70834561D01*
X123025000Y-71405439D01*
X123243466Y-71932862D01*
X123647138Y-72336534D01*
X123776216Y-72390000D01*
X123647138Y-72443466D01*
X123243466Y-72847138D01*
X123025000Y-73374561D01*
X123025000Y-73945439D01*
X123243466Y-74472862D01*
X123647138Y-74876534D01*
X123776216Y-74930000D01*
X123647138Y-74983466D01*
X123243466Y-75387138D01*
X123224864Y-75432047D01*
X123190000Y-75425112D01*
X123115152Y-75440000D01*
X123115148Y-75440000D01*
X122941605Y-75474520D01*
X122893462Y-75484096D01*
X122706418Y-75609076D01*
X122642071Y-75652071D01*
X122599671Y-75715527D01*
X120800528Y-77514671D01*
X120737072Y-77557071D01*
X120569097Y-77808463D01*
X120537938Y-77965112D01*
X120510112Y-78105000D01*
X110510207Y-78105000D01*
X110436534Y-77927138D01*
X110032862Y-77523466D01*
X109903784Y-77470000D01*
X110032862Y-77416534D01*
X110436534Y-77012862D01*
X110655000Y-76485439D01*
X110655000Y-75914561D01*
X110436534Y-75387138D01*
X110032862Y-74983466D01*
X109903784Y-74930000D01*
X110032862Y-74876534D01*
X110436534Y-74472862D01*
X110655000Y-73945439D01*
X110655000Y-73374561D01*
X110436534Y-72847138D01*
X110032862Y-72443466D01*
X109903784Y-72390000D01*
X110032862Y-72336534D01*
X110436534Y-71932862D01*
X110655000Y-71405439D01*
X110655000Y-70834561D01*
X110436534Y-70307138D01*
X110032862Y-69903466D01*
X109903784Y-69850000D01*
X110032862Y-69796534D01*
X110436534Y-69392862D01*
X110655000Y-68865439D01*
X110655000Y-68294561D01*
X110436534Y-67767138D01*
X110032862Y-67363466D01*
X109903784Y-67310000D01*
X110032862Y-67256534D01*
X110436534Y-66852862D01*
X110655000Y-66325439D01*
X110655000Y-65754561D01*
X110436534Y-65227138D01*
X110032862Y-64823466D01*
X109903784Y-64770000D01*
X110032862Y-64716534D01*
X110436534Y-64312862D01*
X110655000Y-63785439D01*
X110655000Y-63214561D01*
X110436534Y-62687138D01*
X110032862Y-62283466D01*
X109903784Y-62230000D01*
X110032862Y-62176534D01*
X110436534Y-61772862D01*
X110655000Y-61245439D01*
X110655000Y-60674561D01*
X110436534Y-60147138D01*
X110032862Y-59743466D01*
X109903784Y-59690000D01*
X110032862Y-59636534D01*
X110436534Y-59232862D01*
X110655000Y-58705439D01*
X110655000Y-58134561D01*
X110436534Y-57607138D01*
X110032862Y-57203466D01*
X109903784Y-57150000D01*
X110032862Y-57096534D01*
X110436534Y-56692862D01*
X110655000Y-56165439D01*
X110655000Y-55594561D01*
X110436534Y-55067138D01*
X110134134Y-54764738D01*
X110267765Y-54738157D01*
X110477809Y-54597809D01*
X110618157Y-54387765D01*
X110667440Y-54140000D01*
X110667440Y-52540000D01*
X110618157Y-52292235D01*
X110477809Y-52082191D01*
X110267765Y-51941843D01*
X110020000Y-51892560D01*
X108420000Y-51892560D01*
X108172235Y-51941843D01*
X107962191Y-52082191D01*
X107821843Y-52292235D01*
X107772560Y-52540000D01*
X102934666Y-52540000D01*
X102991914Y-52419041D01*
X102870629Y-52197000D01*
X101727000Y-52197000D01*
X101473000Y-52197000D01*
X100329371Y-52197000D01*
X100208086Y-52419041D01*
X99187000Y-52419041D01*
X99187000Y-52122606D01*
X100382606Y-50927000D01*
X100765388Y-50927000D01*
X100447611Y-51214866D01*
X100447611Y-51214866D01*
G37*
X100447611Y-51214866D02*
X100208086Y-51720959D01*
X100329371Y-51943000D01*
X101473000Y-51943000D01*
X101473000Y-51923000D01*
X101727000Y-51923000D01*
X101727000Y-51943000D01*
X102870629Y-51943000D01*
X102991914Y-51720959D01*
X102752389Y-51214866D01*
X102434612Y-50927000D01*
X140917394Y-50927000D01*
X142113000Y-52122606D01*
X142113000Y-90117394D01*
X140917394Y-91313000D01*
X122828085Y-91313000D01*
X123115183Y-91051358D01*
X123361486Y-90526892D01*
X123240819Y-90297000D01*
X122047000Y-90297000D01*
X122047000Y-90317000D01*
X121793000Y-90317000D01*
X121793000Y-90297000D01*
X121773000Y-90297000D01*
X121773000Y-90043000D01*
X121793000Y-90043000D01*
X121793000Y-88849845D01*
X122047000Y-88849845D01*
X122047000Y-90043000D01*
X123240819Y-90043000D01*
X123361486Y-89813108D01*
X123115183Y-89288642D01*
X122686924Y-88898355D01*
X122276890Y-88728524D01*
X122047000Y-88849845D01*
X121793000Y-88849845D01*
X121563110Y-88728524D01*
X121153076Y-88898355D01*
X120848739Y-89175708D01*
X120828157Y-89072235D01*
X120687809Y-88862191D01*
X120477765Y-88721843D01*
X120230000Y-88672560D01*
X118530000Y-88672560D01*
X118282235Y-88721843D01*
X118072191Y-88862191D01*
X117931843Y-89072235D01*
X117882560Y-89320000D01*
X117882560Y-91020000D01*
X117931843Y-91267765D01*
X117962068Y-91313000D01*
X100382606Y-91313000D01*
X99187000Y-90117394D01*
X99187000Y-89185750D01*
X100115000Y-89185750D01*
X100115000Y-89876309D01*
X100211673Y-90109698D01*
X100390301Y-90288327D01*
X100623690Y-90385000D01*
X101314250Y-90385000D01*
X101473000Y-90226250D01*
X101473000Y-89027000D01*
X100273750Y-89027000D01*
X100115000Y-89185750D01*
X99187000Y-89185750D01*
X99187000Y-87923691D01*
X100115000Y-87923691D01*
X100115000Y-88614250D01*
X100273750Y-88773000D01*
X101473000Y-88773000D01*
X101473000Y-87573750D01*
X101727000Y-87573750D01*
X101727000Y-88773000D01*
X101747000Y-88773000D01*
X101747000Y-89027000D01*
X101727000Y-89027000D01*
X101727000Y-90226250D01*
X101885750Y-90385000D01*
X102576310Y-90385000D01*
X102809699Y-90288327D01*
X102988327Y-90109698D01*
X103054904Y-89948967D01*
X103069375Y-89970625D01*
X103560582Y-90298839D01*
X103993744Y-90385000D01*
X104286256Y-90385000D01*
X104719418Y-90298839D01*
X105210625Y-89970625D01*
X105410000Y-89672239D01*
X105609375Y-89970625D01*
X106100582Y-90298839D01*
X106533744Y-90385000D01*
X106826256Y-90385000D01*
X107259418Y-90298839D01*
X107750625Y-89970625D01*
X108078839Y-89479418D01*
X108194092Y-88900000D01*
X108078839Y-88320582D01*
X107750625Y-87829375D01*
X107259418Y-87501161D01*
X106826256Y-87415000D01*
X106533744Y-87415000D01*
X106100582Y-87501161D01*
X105609375Y-87829375D01*
X105410000Y-88127761D01*
X105210625Y-87829375D01*
X104719418Y-87501161D01*
X104286256Y-87415000D01*
X103993744Y-87415000D01*
X103560582Y-87501161D01*
X103069375Y-87829375D01*
X103054904Y-87851033D01*
X102988327Y-87690302D01*
X102809699Y-87511673D01*
X102576310Y-87415000D01*
X101885750Y-87415000D01*
X101727000Y-87573750D01*
X101473000Y-87573750D01*
X101314250Y-87415000D01*
X100623690Y-87415000D01*
X100390301Y-87511673D01*
X100211673Y-87690302D01*
X100115000Y-87923691D01*
X99187000Y-87923691D01*
X99187000Y-84811892D01*
X100158514Y-84811892D01*
X100404817Y-85336358D01*
X100833076Y-85726645D01*
X101243110Y-85896476D01*
X101473000Y-85775155D01*
X101473000Y-84582000D01*
X100279181Y-84582000D01*
X100158514Y-84811892D01*
X99187000Y-84811892D01*
X99187000Y-84098108D01*
X100158514Y-84098108D01*
X100279181Y-84328000D01*
X101473000Y-84328000D01*
X101473000Y-83134845D01*
X101727000Y-83134845D01*
X101727000Y-84328000D01*
X101747000Y-84328000D01*
X101747000Y-84582000D01*
X101727000Y-84582000D01*
X101727000Y-85775155D01*
X101956890Y-85896476D01*
X102366924Y-85726645D01*
X102795183Y-85336358D01*
X102856157Y-85206522D01*
X103069375Y-85525625D01*
X103560582Y-85853839D01*
X103993744Y-85940000D01*
X104286256Y-85940000D01*
X104719418Y-85853839D01*
X105210625Y-85525625D01*
X105222816Y-85507381D01*
X105231843Y-85552765D01*
X105372191Y-85762809D01*
X105582235Y-85903157D01*
X105830000Y-85952440D01*
X107530000Y-85952440D01*
X107777765Y-85903157D01*
X107987809Y-85762809D01*
X108128157Y-85552765D01*
X108177440Y-85305000D01*
X108177440Y-83605000D01*
X108128157Y-83357235D01*
X107987809Y-83147191D01*
X107777765Y-83006843D01*
X107530000Y-82957560D01*
X105830000Y-82957560D01*
X105582235Y-83006843D01*
X105372191Y-83147191D01*
X105231843Y-83357235D01*
X105222816Y-83402619D01*
X105210625Y-83384375D01*
X104719418Y-83056161D01*
X104286256Y-82970000D01*
X103993744Y-82970000D01*
X103560582Y-83056161D01*
X103069375Y-83384375D01*
X102856157Y-83703478D01*
X102795183Y-83573642D01*
X102366924Y-83183355D01*
X101956890Y-83013524D01*
X101727000Y-83134845D01*
X101473000Y-83134845D01*
X101243110Y-83013524D01*
X100833076Y-83183355D01*
X100404817Y-83573642D01*
X100158514Y-84098108D01*
X99187000Y-84098108D01*
X99187000Y-78525000D01*
X100102560Y-78525000D01*
X100102560Y-80225000D01*
X100151843Y-80472765D01*
X100292191Y-80682809D01*
X100502235Y-80823157D01*
X100750000Y-80872440D01*
X102450000Y-80872440D01*
X102697765Y-80823157D01*
X102907809Y-80682809D01*
X103048157Y-80472765D01*
X103097440Y-80225000D01*
X103097440Y-78525000D01*
X103048157Y-78277235D01*
X102907809Y-78067191D01*
X102697765Y-77926843D01*
X102450000Y-77877560D01*
X100750000Y-77877560D01*
X100502235Y-77926843D01*
X100292191Y-78067191D01*
X100151843Y-78277235D01*
X100102560Y-78525000D01*
X99187000Y-78525000D01*
X99187000Y-75279561D01*
X100165000Y-75279561D01*
X100165000Y-75850439D01*
X100383466Y-76377862D01*
X100787138Y-76781534D01*
X101314561Y-77000000D01*
X101885439Y-77000000D01*
X102412862Y-76781534D01*
X102816534Y-76377862D01*
X103035000Y-75850439D01*
X103035000Y-75279561D01*
X103340000Y-75279561D01*
X103340000Y-75850439D01*
X103558466Y-76377862D01*
X103962138Y-76781534D01*
X104489561Y-77000000D01*
X105060439Y-77000000D01*
X105587862Y-76781534D01*
X105991534Y-76377862D01*
X106210000Y-75850439D01*
X106210000Y-75279561D01*
X105991534Y-74752138D01*
X105587862Y-74348466D01*
X105060439Y-74130000D01*
X104489561Y-74130000D01*
X103962138Y-74348466D01*
X103558466Y-74752138D01*
X103340000Y-75279561D01*
X103035000Y-75279561D01*
X102816534Y-74752138D01*
X102412862Y-74348466D01*
X101885439Y-74130000D01*
X101314561Y-74130000D01*
X100787138Y-74348466D01*
X100383466Y-74752138D01*
X100165000Y-75279561D01*
X99187000Y-75279561D01*
X99187000Y-65405000D01*
X100136887Y-65405000D01*
X100248260Y-65964909D01*
X100565423Y-66439577D01*
X101040091Y-66756740D01*
X101458667Y-66840000D01*
X101741333Y-66840000D01*
X102159909Y-66756740D01*
X102634577Y-66439577D01*
X102951740Y-65964909D01*
X103063113Y-65405000D01*
X103311887Y-65405000D01*
X103423260Y-65964909D01*
X103740423Y-66439577D01*
X104215091Y-66756740D01*
X104633667Y-66840000D01*
X104916333Y-66840000D01*
X105334909Y-66756740D01*
X105809577Y-66439577D01*
X106126740Y-65964909D01*
X106238113Y-65405000D01*
X106126740Y-64845091D01*
X105809577Y-64370423D01*
X105334909Y-64053260D01*
X104916333Y-63970000D01*
X104633667Y-63970000D01*
X104215091Y-64053260D01*
X103740423Y-64370423D01*
X103423260Y-64845091D01*
X103311887Y-65405000D01*
X103063113Y-65405000D01*
X102951740Y-64845091D01*
X102634577Y-64370423D01*
X102159909Y-64053260D01*
X101741333Y-63970000D01*
X101458667Y-63970000D01*
X101040091Y-64053260D01*
X100565423Y-64370423D01*
X100248260Y-64845091D01*
X100136887Y-65405000D01*
X99187000Y-65405000D01*
X99187000Y-61944561D01*
X100165000Y-61944561D01*
X100165000Y-62515439D01*
X100383466Y-63042862D01*
X100787138Y-63446534D01*
X101314561Y-63665000D01*
X101885439Y-63665000D01*
X102412862Y-63446534D01*
X102816534Y-63042862D01*
X103035000Y-62515439D01*
X103035000Y-61944561D01*
X102816534Y-61417138D01*
X102412862Y-61013466D01*
X101885439Y-60795000D01*
X101314561Y-60795000D01*
X100787138Y-61013466D01*
X100383466Y-61417138D01*
X100165000Y-61944561D01*
X99187000Y-61944561D01*
X99187000Y-52419041D01*
X100208086Y-52419041D01*
X100447611Y-52925134D01*
X100862577Y-53301041D01*
X101250961Y-53461904D01*
X101473000Y-53339915D01*
X101473000Y-52197000D01*
X101727000Y-52197000D01*
X101727000Y-53339915D01*
X101949039Y-53461904D01*
X102337423Y-53301041D01*
X102752389Y-52925134D01*
X102934666Y-52540000D01*
X107772560Y-52540000D01*
X107772560Y-54140000D01*
X107821843Y-54387765D01*
X107962191Y-54597809D01*
X108172235Y-54738157D01*
X108305866Y-54764738D01*
X108003466Y-55067138D01*
X107785000Y-55594561D01*
X107785000Y-56165439D01*
X108003466Y-56692862D01*
X108407138Y-57096534D01*
X108536216Y-57150000D01*
X108407138Y-57203466D01*
X108003466Y-57607138D01*
X107785000Y-58134561D01*
X107785000Y-58705439D01*
X108003466Y-59232862D01*
X108407138Y-59636534D01*
X108536216Y-59690000D01*
X108407138Y-59743466D01*
X108003466Y-60147138D01*
X107785000Y-60674561D01*
X107785000Y-61245439D01*
X108003466Y-61772862D01*
X108407138Y-62176534D01*
X108536216Y-62230000D01*
X108407138Y-62283466D01*
X108003466Y-62687138D01*
X107785000Y-63214561D01*
X107785000Y-63785439D01*
X108003466Y-64312862D01*
X108407138Y-64716534D01*
X108536216Y-64770000D01*
X108407138Y-64823466D01*
X108003466Y-65227138D01*
X107785000Y-65754561D01*
X107785000Y-66325439D01*
X108003466Y-66852862D01*
X108407138Y-67256534D01*
X108536216Y-67310000D01*
X108407138Y-67363466D01*
X108003466Y-67767138D01*
X107785000Y-68294561D01*
X107785000Y-68865439D01*
X108003466Y-69392862D01*
X108407138Y-69796534D01*
X108536216Y-69850000D01*
X108407138Y-69903466D01*
X108003466Y-70307138D01*
X107785000Y-70834561D01*
X107785000Y-71405439D01*
X108003466Y-71932862D01*
X108407138Y-72336534D01*
X108536216Y-72390000D01*
X108407138Y-72443466D01*
X108003466Y-72847138D01*
X107785000Y-73374561D01*
X107785000Y-73945439D01*
X108003466Y-74472862D01*
X108407138Y-74876534D01*
X108536216Y-74930000D01*
X108407138Y-74983466D01*
X108003466Y-75387138D01*
X107785000Y-75914561D01*
X107785000Y-76485439D01*
X108003466Y-77012862D01*
X108407138Y-77416534D01*
X108536216Y-77470000D01*
X108407138Y-77523466D01*
X108003466Y-77927138D01*
X107785000Y-78454561D01*
X107785000Y-79025439D01*
X108003466Y-79552862D01*
X108407138Y-79956534D01*
X108536216Y-80010000D01*
X108407138Y-80063466D01*
X108003466Y-80467138D01*
X107785000Y-80994561D01*
X107785000Y-81565439D01*
X108003466Y-82092862D01*
X108407138Y-82496534D01*
X108934561Y-82715000D01*
X109505439Y-82715000D01*
X110032862Y-82496534D01*
X110436534Y-82092862D01*
X110655000Y-81565439D01*
X110655000Y-80994561D01*
X110436534Y-80467138D01*
X110032862Y-80063466D01*
X109903784Y-80010000D01*
X110032862Y-79956534D01*
X110436534Y-79552862D01*
X110655000Y-79025439D01*
X110655000Y-78454561D01*
X110510207Y-78105000D01*
X120510112Y-78105000D01*
X120525001Y-78179852D01*
X120525000Y-83110153D01*
X120510112Y-83185000D01*
X120525000Y-83259847D01*
X120525000Y-83259851D01*
X120569096Y-83481536D01*
X120737071Y-83732929D01*
X120800530Y-83775331D01*
X123869671Y-86844473D01*
X123912071Y-86907929D01*
X124163463Y-87075904D01*
X124385148Y-87120000D01*
X124385152Y-87120000D01*
X124459999Y-87134888D01*
X124534846Y-87120000D01*
X130801822Y-87120000D01*
X131009375Y-87430625D01*
X131307761Y-87630000D01*
X131009375Y-87829375D01*
X130681161Y-88320582D01*
X130565908Y-88900000D01*
X130681161Y-89479418D01*
X131009375Y-89970625D01*
X131500582Y-90298839D01*
X131933744Y-90385000D01*
X132226256Y-90385000D01*
X132659418Y-90298839D01*
X133150625Y-89970625D01*
X133478839Y-89479418D01*
X133594092Y-88900000D01*
X133478839Y-88320582D01*
X133150625Y-87829375D01*
X132852239Y-87630000D01*
X133150625Y-87430625D01*
X133478839Y-86939418D01*
X133594092Y-86360000D01*
X133478839Y-85780582D01*
X133150625Y-85289375D01*
X132852239Y-85090000D01*
X133150625Y-84890625D01*
X133478839Y-84399418D01*
X133594092Y-83820000D01*
X133478839Y-83240582D01*
X133150625Y-82749375D01*
X132852239Y-82550000D01*
X133150625Y-82350625D01*
X133478839Y-81859418D01*
X133594092Y-81280000D01*
X133478839Y-80700582D01*
X133150625Y-80209375D01*
X132852239Y-80010000D01*
X133150625Y-79810625D01*
X133478839Y-79319418D01*
X133594092Y-78740000D01*
X135010908Y-78740000D01*
X135126161Y-79319418D01*
X135454375Y-79810625D01*
X135752761Y-80010000D01*
X135454375Y-80209375D01*
X135126161Y-80700582D01*
X135010908Y-81280000D01*
X135126161Y-81859418D01*
X135454375Y-82350625D01*
X135752761Y-82550000D01*
X135454375Y-82749375D01*
X135126161Y-83240582D01*
X135010908Y-83820000D01*
X135126161Y-84399418D01*
X135454375Y-84890625D01*
X135752761Y-85090000D01*
X135454375Y-85289375D01*
X135126161Y-85780582D01*
X135010908Y-86360000D01*
X135126161Y-86939418D01*
X135454375Y-87430625D01*
X135945582Y-87758839D01*
X136378744Y-87845000D01*
X136671256Y-87845000D01*
X137104418Y-87758839D01*
X137595625Y-87430625D01*
X137795000Y-87132239D01*
X137994375Y-87430625D01*
X138485582Y-87758839D01*
X138918744Y-87845000D01*
X139211256Y-87845000D01*
X139644418Y-87758839D01*
X140135625Y-87430625D01*
X140463839Y-86939418D01*
X140579092Y-86360000D01*
X140463839Y-85780582D01*
X140135625Y-85289375D01*
X139837239Y-85090000D01*
X140135625Y-84890625D01*
X140463839Y-84399418D01*
X140579092Y-83820000D01*
X140463839Y-83240582D01*
X140135625Y-82749375D01*
X139837239Y-82550000D01*
X140135625Y-82350625D01*
X140463839Y-81859418D01*
X140579092Y-81280000D01*
X140463839Y-80700582D01*
X140135625Y-80209375D01*
X140117381Y-80197184D01*
X140162765Y-80188157D01*
X140372809Y-80047809D01*
X140513157Y-79837765D01*
X140562440Y-79590000D01*
X140562440Y-77890000D01*
X140513157Y-77642235D01*
X140372809Y-77432191D01*
X140162765Y-77291843D01*
X139915000Y-77242560D01*
X138215000Y-77242560D01*
X137967235Y-77291843D01*
X137757191Y-77432191D01*
X137616843Y-77642235D01*
X137607816Y-77687619D01*
X137595625Y-77669375D01*
X137104418Y-77341161D01*
X136671256Y-77255000D01*
X136378744Y-77255000D01*
X135945582Y-77341161D01*
X135454375Y-77669375D01*
X135126161Y-78160582D01*
X135010908Y-78740000D01*
X133594092Y-78740000D01*
X133478839Y-78160582D01*
X133150625Y-77669375D01*
X133132381Y-77657184D01*
X133177765Y-77648157D01*
X133387809Y-77507809D01*
X133528157Y-77297765D01*
X133577440Y-77050000D01*
X133577440Y-75350000D01*
X133528157Y-75102235D01*
X133387809Y-74892191D01*
X133177765Y-74751843D01*
X132930000Y-74702560D01*
X131230000Y-74702560D01*
X130982235Y-74751843D01*
X130772191Y-74892191D01*
X130631843Y-75102235D01*
X130582560Y-75350000D01*
X130582560Y-77050000D01*
X130631843Y-77297765D01*
X130772191Y-77507809D01*
X130982235Y-77648157D01*
X131027619Y-77657184D01*
X131009375Y-77669375D01*
X130681161Y-78160582D01*
X130565908Y-78740000D01*
X130681161Y-79319418D01*
X130915413Y-79670001D01*
X130274803Y-79670001D01*
X129665000Y-79060199D01*
X129665000Y-75639848D01*
X129679888Y-75565000D01*
X129665000Y-75490152D01*
X129665000Y-75490148D01*
X129620904Y-75268463D01*
X129620904Y-75268462D01*
X129495329Y-75080527D01*
X129452929Y-75017071D01*
X129389473Y-74974671D01*
X127590331Y-73175530D01*
X127547929Y-73112071D01*
X127296537Y-72944096D01*
X127074852Y-72900000D01*
X127074847Y-72900000D01*
X127000000Y-72885112D01*
X126925153Y-72900000D01*
X125698430Y-72900000D01*
X125676534Y-72847138D01*
X125272862Y-72443466D01*
X125143784Y-72390000D01*
X125272862Y-72336534D01*
X125676534Y-71932862D01*
X125895000Y-71405439D01*
X125895000Y-70834561D01*
X125676534Y-70307138D01*
X125272862Y-69903466D01*
X125143784Y-69850000D01*
X125272862Y-69796534D01*
X125676534Y-69392862D01*
X125895000Y-68865439D01*
X125895000Y-68294561D01*
X125676534Y-67767138D01*
X125272862Y-67363466D01*
X125143784Y-67310000D01*
X125272862Y-67256534D01*
X125676534Y-66852862D01*
X125895000Y-66325439D01*
X125895000Y-65754561D01*
X125878522Y-65714778D01*
X130525000Y-65714778D01*
X130525000Y-66365222D01*
X130773914Y-66966153D01*
X131233847Y-67426086D01*
X131834778Y-67675000D01*
X132485222Y-67675000D01*
X133086153Y-67426086D01*
X133546086Y-66966153D01*
X133795000Y-66365222D01*
X133795000Y-65714778D01*
X133546086Y-65113847D01*
X133472239Y-65040000D01*
X135512560Y-65040000D01*
X135512560Y-67040000D01*
X135561843Y-67287765D01*
X135702191Y-67497809D01*
X135912235Y-67638157D01*
X136160000Y-67687440D01*
X138160000Y-67687440D01*
X138407765Y-67638157D01*
X138617809Y-67497809D01*
X138758157Y-67287765D01*
X138807440Y-67040000D01*
X138807440Y-65040000D01*
X138758157Y-64792235D01*
X138617809Y-64582191D01*
X138407765Y-64441843D01*
X138160000Y-64392560D01*
X136160000Y-64392560D01*
X135912235Y-64441843D01*
X135702191Y-64582191D01*
X135561843Y-64792235D01*
X135512560Y-65040000D01*
X133472239Y-65040000D01*
X133086153Y-64653914D01*
X132485222Y-64405000D01*
X131834778Y-64405000D01*
X131233847Y-64653914D01*
X130773914Y-65113847D01*
X130525000Y-65714778D01*
X125878522Y-65714778D01*
X125676534Y-65227138D01*
X125272862Y-64823466D01*
X125143784Y-64770000D01*
X125272862Y-64716534D01*
X125676534Y-64312862D01*
X125895000Y-63785439D01*
X125895000Y-63214561D01*
X125676534Y-62687138D01*
X125272862Y-62283466D01*
X125143784Y-62230000D01*
X125272862Y-62176534D01*
X125676534Y-61772862D01*
X125895000Y-61245439D01*
X125895000Y-60674561D01*
X125676534Y-60147138D01*
X125272862Y-59743466D01*
X125143784Y-59690000D01*
X125272862Y-59636534D01*
X125676534Y-59232862D01*
X125895000Y-58705439D01*
X125895000Y-58134561D01*
X125676534Y-57607138D01*
X125272862Y-57203466D01*
X125143784Y-57150000D01*
X125272862Y-57096534D01*
X125676534Y-56692862D01*
X125895000Y-56165439D01*
X125895000Y-55594561D01*
X135765000Y-55594561D01*
X135765000Y-56165439D01*
X135983466Y-56692862D01*
X136387138Y-57096534D01*
X136914561Y-57315000D01*
X137485439Y-57315000D01*
X138012862Y-57096534D01*
X138281899Y-56827497D01*
X138301843Y-56927765D01*
X138442191Y-57137809D01*
X138652235Y-57278157D01*
X138900000Y-57327440D01*
X140500000Y-57327440D01*
X140747765Y-57278157D01*
X140957809Y-57137809D01*
X141098157Y-56927765D01*
X141147440Y-56680000D01*
X141147440Y-55080000D01*
X141098157Y-54832235D01*
X140957809Y-54622191D01*
X140747765Y-54481843D01*
X140500000Y-54432560D01*
X138900000Y-54432560D01*
X138652235Y-54481843D01*
X138442191Y-54622191D01*
X138301843Y-54832235D01*
X138281899Y-54932503D01*
X138012862Y-54663466D01*
X137485439Y-54445000D01*
X136914561Y-54445000D01*
X136387138Y-54663466D01*
X135983466Y-55067138D01*
X135765000Y-55594561D01*
X125895000Y-55594561D01*
X125676534Y-55067138D01*
X125272862Y-54663466D01*
X125143784Y-54610000D01*
X125272862Y-54556534D01*
X125676534Y-54152862D01*
X125895000Y-53625439D01*
X125895000Y-53054561D01*
X125676534Y-52527138D01*
X125639396Y-52490000D01*
X128042560Y-52490000D01*
X128042560Y-54190000D01*
X128091843Y-54437765D01*
X128232191Y-54647809D01*
X128442235Y-54788157D01*
X128690000Y-54837440D01*
X130390000Y-54837440D01*
X130637765Y-54788157D01*
X130847809Y-54647809D01*
X130988157Y-54437765D01*
X131008739Y-54334292D01*
X131313076Y-54611645D01*
X131723110Y-54781476D01*
X131953000Y-54660155D01*
X131953000Y-53467000D01*
X132207000Y-53467000D01*
X132207000Y-54660155D01*
X132436890Y-54781476D01*
X132846924Y-54611645D01*
X133275183Y-54221358D01*
X133521486Y-53696892D01*
X133400819Y-53467000D01*
X132207000Y-53467000D01*
X131953000Y-53467000D01*
X131933000Y-53467000D01*
X131933000Y-53213000D01*
X131953000Y-53213000D01*
X131953000Y-52019845D01*
X132207000Y-52019845D01*
X132207000Y-53213000D01*
X133400819Y-53213000D01*
X133521486Y-52983108D01*
X133275183Y-52458642D01*
X132846924Y-52068355D01*
X132436890Y-51898524D01*
X132207000Y-52019845D01*
X131953000Y-52019845D01*
X131723110Y-51898524D01*
X131313076Y-52068355D01*
X131008739Y-52345708D01*
X130988157Y-52242235D01*
X130847809Y-52032191D01*
X130637765Y-51891843D01*
X130390000Y-51842560D01*
X128690000Y-51842560D01*
X128442235Y-51891843D01*
X128232191Y-52032191D01*
X128091843Y-52242235D01*
X128042560Y-52490000D01*
X125639396Y-52490000D01*
X125272862Y-52123466D01*
X124745439Y-51905000D01*
X124174561Y-51905000D01*
X123647138Y-52123466D01*
X123243466Y-52527138D01*
X123025000Y-53054561D01*
X123025000Y-53625439D01*
X123243466Y-54152862D01*
X123647138Y-54556534D01*
X123776216Y-54610000D01*
X123647138Y-54663466D01*
X123243466Y-55067138D01*
X123025000Y-55594561D01*
X123025000Y-56165439D01*
X123243466Y-56692862D01*
X123647138Y-57096534D01*
X123776216Y-57150000D01*
X123647138Y-57203466D01*
X123243466Y-57607138D01*
X123025000Y-58134561D01*
X123025000Y-58705439D01*
X123243466Y-59232862D01*
X123647138Y-59636534D01*
X123776216Y-59690000D01*
X123647138Y-59743466D01*
X123243466Y-60147138D01*
X123025000Y-60674561D01*
X123025000Y-61245439D01*
X123243466Y-61772862D01*
X123647138Y-62176534D01*
X123776216Y-62230000D01*
X123647138Y-62283466D01*
X123243466Y-62687138D01*
X123025000Y-63214561D01*
X123025000Y-63785439D01*
X123243466Y-64312862D01*
X123647138Y-64716534D01*
X123776216Y-64770000D01*
X123647138Y-64823466D01*
X123243466Y-65227138D01*
X123025000Y-65754561D01*
X123025000Y-66325439D01*
X123243466Y-66852862D01*
X123647138Y-67256534D01*
X123776216Y-67310000D01*
X123647138Y-67363466D01*
X123243466Y-67767138D01*
X123025000Y-68294561D01*
X123025000Y-68865439D01*
X123243466Y-69392862D01*
X123647138Y-69796534D01*
X123776216Y-69850000D01*
X123647138Y-69903466D01*
X123243466Y-70307138D01*
X123025000Y-70834561D01*
X123025000Y-71405439D01*
X123243466Y-71932862D01*
X123647138Y-72336534D01*
X123776216Y-72390000D01*
X123647138Y-72443466D01*
X123243466Y-72847138D01*
X123025000Y-73374561D01*
X123025000Y-73945439D01*
X123243466Y-74472862D01*
X123647138Y-74876534D01*
X123776216Y-74930000D01*
X123647138Y-74983466D01*
X123243466Y-75387138D01*
X123224864Y-75432047D01*
X123190000Y-75425112D01*
X123115152Y-75440000D01*
X123115148Y-75440000D01*
X122941605Y-75474520D01*
X122893462Y-75484096D01*
X122706418Y-75609076D01*
X122642071Y-75652071D01*
X122599671Y-75715527D01*
X120800528Y-77514671D01*
X120737072Y-77557071D01*
X120569097Y-77808463D01*
X120537938Y-77965112D01*
X120510112Y-78105000D01*
X110510207Y-78105000D01*
X110436534Y-77927138D01*
X110032862Y-77523466D01*
X109903784Y-77470000D01*
X110032862Y-77416534D01*
X110436534Y-77012862D01*
X110655000Y-76485439D01*
X110655000Y-75914561D01*
X110436534Y-75387138D01*
X110032862Y-74983466D01*
X109903784Y-74930000D01*
X110032862Y-74876534D01*
X110436534Y-74472862D01*
X110655000Y-73945439D01*
X110655000Y-73374561D01*
X110436534Y-72847138D01*
X110032862Y-72443466D01*
X109903784Y-72390000D01*
X110032862Y-72336534D01*
X110436534Y-71932862D01*
X110655000Y-71405439D01*
X110655000Y-70834561D01*
X110436534Y-70307138D01*
X110032862Y-69903466D01*
X109903784Y-69850000D01*
X110032862Y-69796534D01*
X110436534Y-69392862D01*
X110655000Y-68865439D01*
X110655000Y-68294561D01*
X110436534Y-67767138D01*
X110032862Y-67363466D01*
X109903784Y-67310000D01*
X110032862Y-67256534D01*
X110436534Y-66852862D01*
X110655000Y-66325439D01*
X110655000Y-65754561D01*
X110436534Y-65227138D01*
X110032862Y-64823466D01*
X109903784Y-64770000D01*
X110032862Y-64716534D01*
X110436534Y-64312862D01*
X110655000Y-63785439D01*
X110655000Y-63214561D01*
X110436534Y-62687138D01*
X110032862Y-62283466D01*
X109903784Y-62230000D01*
X110032862Y-62176534D01*
X110436534Y-61772862D01*
X110655000Y-61245439D01*
X110655000Y-60674561D01*
X110436534Y-60147138D01*
X110032862Y-59743466D01*
X109903784Y-59690000D01*
X110032862Y-59636534D01*
X110436534Y-59232862D01*
X110655000Y-58705439D01*
X110655000Y-58134561D01*
X110436534Y-57607138D01*
X110032862Y-57203466D01*
X109903784Y-57150000D01*
X110032862Y-57096534D01*
X110436534Y-56692862D01*
X110655000Y-56165439D01*
X110655000Y-55594561D01*
X110436534Y-55067138D01*
X110134134Y-54764738D01*
X110267765Y-54738157D01*
X110477809Y-54597809D01*
X110618157Y-54387765D01*
X110667440Y-54140000D01*
X110667440Y-52540000D01*
X110618157Y-52292235D01*
X110477809Y-52082191D01*
X110267765Y-51941843D01*
X110020000Y-51892560D01*
X108420000Y-51892560D01*
X108172235Y-51941843D01*
X107962191Y-52082191D01*
X107821843Y-52292235D01*
X107772560Y-52540000D01*
X102934666Y-52540000D01*
X102991914Y-52419041D01*
X102870629Y-52197000D01*
X101727000Y-52197000D01*
X101473000Y-52197000D01*
X100329371Y-52197000D01*
X100208086Y-52419041D01*
X99187000Y-52419041D01*
X99187000Y-52122606D01*
X100382606Y-50927000D01*
X100765388Y-50927000D01*
X100447611Y-51214866D01*
G04 #@! TD*
M02*
