%FSLAX45Y45*%
G04 Gerber Fmt 4.5, Leading zero omitted, Abs format (unit mm)*
G04 Created by KiCad (PCBNEW 5.0.1) date Sun 03 Feb 2019 02:08:52 PM CET*
%MOMM*%
%LPD*%
G01*
G04 APERTURE LIST*
%ADD10C,0.150000*%
%ADD11C,0.200000*%
%ADD12C,0.300000*%
G04 APERTURE END LIST*
D10*
X10033000Y-9271000D02*
G75*
G02X9779000Y-9017000I0J254000D01*
G01*
X9779000Y-5207000D02*
G75*
G02X10033000Y-4953000I254000J0D01*
G01*
X14097000Y-4953000D02*
G75*
G02X14351000Y-5207000I0J-254000D01*
G01*
X14097000Y-4953000D02*
X10033000Y-4953000D01*
X14351000Y-9017000D02*
X14351000Y-5207000D01*
X14351000Y-9017000D02*
G75*
G02X14097000Y-9271000I-254000J0D01*
G01*
D11*
X9779000Y-9017000D02*
X9779000Y-5207000D01*
X14097000Y-9271000D02*
X10033000Y-9271000D01*
D11*
D12*
X10055428Y-9746714D02*
X10055428Y-9446714D01*
X10126857Y-9446714D01*
X10169714Y-9461000D01*
X10198286Y-9489572D01*
X10212571Y-9518143D01*
X10226857Y-9575286D01*
X10226857Y-9618143D01*
X10212571Y-9675286D01*
X10198286Y-9703857D01*
X10169714Y-9732429D01*
X10126857Y-9746714D01*
X10055428Y-9746714D01*
X10355428Y-9746714D02*
X10355428Y-9546714D01*
X10355428Y-9603857D02*
X10369714Y-9575286D01*
X10384000Y-9561000D01*
X10412571Y-9546714D01*
X10441143Y-9546714D01*
X10541143Y-9746714D02*
X10541143Y-9546714D01*
X10541143Y-9446714D02*
X10526857Y-9461000D01*
X10541143Y-9475286D01*
X10555428Y-9461000D01*
X10541143Y-9446714D01*
X10541143Y-9475286D01*
X10726857Y-9746714D02*
X10698286Y-9732429D01*
X10684000Y-9703857D01*
X10684000Y-9446714D01*
X10884000Y-9746714D02*
X10855428Y-9732429D01*
X10841143Y-9703857D01*
X10841143Y-9446714D01*
X11226857Y-9746714D02*
X11226857Y-9446714D01*
X11326857Y-9661000D01*
X11426857Y-9446714D01*
X11426857Y-9746714D01*
X11698286Y-9746714D02*
X11698286Y-9589572D01*
X11684000Y-9561000D01*
X11655428Y-9546714D01*
X11598286Y-9546714D01*
X11569714Y-9561000D01*
X11698286Y-9732429D02*
X11669714Y-9746714D01*
X11598286Y-9746714D01*
X11569714Y-9732429D01*
X11555428Y-9703857D01*
X11555428Y-9675286D01*
X11569714Y-9646714D01*
X11598286Y-9632429D01*
X11669714Y-9632429D01*
X11698286Y-9618143D01*
X11841143Y-9546714D02*
X11841143Y-9846714D01*
X11841143Y-9561000D02*
X11869714Y-9546714D01*
X11926857Y-9546714D01*
X11955428Y-9561000D01*
X11969714Y-9575286D01*
X11984000Y-9603857D01*
X11984000Y-9689572D01*
X11969714Y-9718143D01*
X11955428Y-9732429D01*
X11926857Y-9746714D01*
X11869714Y-9746714D01*
X11841143Y-9732429D01*
X12112571Y-9718143D02*
X12126857Y-9732429D01*
X12112571Y-9746714D01*
X12098286Y-9732429D01*
X12112571Y-9718143D01*
X12112571Y-9746714D01*
X12112571Y-9561000D02*
X12126857Y-9575286D01*
X12112571Y-9589572D01*
X12098286Y-9575286D01*
X12112571Y-9561000D01*
X12112571Y-9589572D01*
M02*
