M48
INCH,TZ
T1C0.0157
T2C0.0315
T3C0.0394
T4C0.0433
%
G90
G05
T1
X51500Y-23000
T2
X40000Y-25750
X40000Y-29750
X41250Y-25750
X41250Y-29750
X40000Y-20500
X40000Y-24500
X54250Y-22750
X55234Y-22750
T3
X50500Y-35500
X51500Y-35500
X55500Y-30000
X55500Y-31000
X55500Y-32000
X55500Y-33000
X55500Y-34000
X55500Y-35000
X51500Y-23000
X52031Y-26000
X54000Y-26000
X40000Y-35000
X41000Y-35000
X42000Y-35000
X40000Y-32000
X41000Y-32000
X45500Y-35000
X46500Y-35000
X47500Y-35000
X50750Y-21000
X51750Y-21000
X52750Y-21000
T4
X43000Y-22000
X43000Y-23000
X43000Y-24000
X43000Y-25000
X43000Y-26000
X43000Y-27000
X43000Y-28000
X43000Y-29000
X43000Y-30000
X43000Y-31000
X43000Y-32000
X43000Y-33000
X49000Y-22000
X49000Y-23000
X49000Y-24000
X49000Y-25000
X49000Y-26000
X49000Y-27000
X49000Y-28000
X49000Y-29000
X49000Y-30000
X49000Y-31000
X49000Y-32000
X49000Y-33000
T0
M30
